<svg width="114" height="32" viewBox="0 0 114 32" fill="none" xmlns="http://www.w3.org/2000/svg">
<circle cx="16" cy="16" r="16" fill="url(#paint0_linear_36565_34994)"/>
<path d="M17.4347 12.3121L15.1443 13.6164C14.9264 13.7612 14.6352 13.6045 14.6352 13.3434V10.7355C14.6352 10.4736 14.9264 10.3176 15.1443 10.4625L17.4347 11.7667C17.6304 11.8963 17.6304 12.1825 17.4347 12.3121ZM15.7892 9.00005C14.1109 9.00005 12.7502 10.3608 12.7502 12.039C12.7502 13.718 14.1109 15.0787 15.7892 15.0787C17.4674 15.0787 18.8282 13.718 18.8282 12.039C18.8282 10.3608 17.4674 9.00005 15.7892 9.00005Z" fill="white"/>
<path d="M15.7892 21.0724C15.7801 21.0724 15.7717 21.0724 15.7627 21.0732C13.5196 21.0781 11.4263 21.7193 9.65404 22.8267C9.61783 22.8496 9.58161 22.8726 9.5461 22.8956C9.50155 22.9241 9.45484 22.9485 9.40543 22.9646C9.333 22.9875 9.25572 23 9.17565 23H9.17419C9.07814 23 8.9841 22.9736 8.89848 22.9311C8.83231 22.897 8.76545 22.8629 8.69998 22.8287C8.49939 22.7243 8.30166 22.6157 8.1067 22.5022C7.26683 22.0154 6.47715 21.4506 5.74807 20.8196C4.25502 19.5244 3.01405 17.9464 2.1101 16.1678C2.08995 16.1289 2.07042 16.0899 2.05089 16.0509C2.01892 15.9714 2.00147 15.8844 2.00008 15.7932C1.99383 15.3851 2.34759 15.0501 2.75641 15.0501H5.20831C5.43114 15.0501 5.63172 15.1504 5.76544 15.3085C5.80583 15.3789 5.8476 15.4485 5.89006 15.5174C6.49453 16.5063 7.24313 17.3976 8.1067 18.1623C8.33717 18.3663 8.57536 18.5613 8.82188 18.7465C10.762 20.2068 13.1743 21.0724 15.7892 21.0724Z" fill="white"/>
<path d="M22.3903 23H22.3852C22.253 22.9994 22.1241 22.9548 22.012 22.8837L21.879 22.7988H21.8783C20.1158 21.7089 18.0392 21.0781 15.8156 21.0732C15.8065 21.0724 15.7982 21.0724 15.7892 21.0724C13.1743 21.0724 10.762 20.2068 8.8219 18.7465C10.9124 17.679 13.2808 17.0766 15.7892 17.0766C18.2975 17.0766 20.6659 17.679 22.7564 18.7465C22.9891 18.8657 23.2181 18.9903 23.4437 19.1205C24.294 19.6108 25.0928 20.1804 25.8302 20.8196C25.0928 21.4582 24.294 22.0279 23.4437 22.5181C23.2446 22.633 23.0426 22.7437 22.8379 22.8496L22.8372 22.8504L22.6993 22.9203C22.6033 22.969 22.498 22.9997 22.3903 23Z" fill="#FDDADA"/>
<path d="M29.5784 15.782C29.5784 15.8772 29.5604 15.9678 29.5272 16.0511L29.5269 16.0516C29.5074 16.0902 29.4883 16.1293 29.4684 16.1676V16.1679C28.5642 17.9464 27.3234 19.5246 25.8299 20.8193C25.0926 20.1805 24.2937 19.611 23.4436 19.1204C23.2179 18.9902 22.9888 18.8655 22.756 18.7467C22.9925 18.5688 23.2219 18.382 23.4436 18.1864C24.3187 17.4171 25.0771 16.5171 25.6881 15.5175C25.7306 15.4485 25.772 15.3796 25.8119 15.3095L25.8128 15.3084C25.9468 15.1505 26.1469 15.0504 26.3702 15.0504H28.8467C29.2508 15.0504 29.5784 15.3779 29.5784 15.782Z" fill="white"/>
<path d="M86.4244 10.6981V11.9989C86.4244 13.0969 85.5345 13.9868 84.4365 13.9868H82.4486C82.0692 13.9868 81.7614 14.2946 81.7614 14.674V23.3128C81.7614 23.6923 81.4537 24 81.0743 24H77.7856C77.4062 24 77.0984 23.6923 77.0984 23.3128V14.674C77.0984 14.2946 76.7906 13.9868 76.4113 13.9868H74.4233C73.3253 13.9868 72.4354 13.0969 72.4354 11.9989V10.6981C72.4354 10.3188 72.7432 10.011 73.1226 10.011H85.7372C86.1167 10.011 86.4244 10.3188 86.4244 10.6981Z" fill="#F0412A"/>
<path d="M113.305 10.7075V23.2954C113.305 23.6688 113.003 23.9713 112.629 23.9713H110.982C110.34 23.9713 109.759 23.7111 109.339 23.2908C108.919 22.8705 108.658 22.2897 108.658 21.648V20.0006C108.658 19.6272 108.356 19.3248 107.982 19.3248H104.688C104.314 19.3248 104.012 19.6272 104.012 20.0006V21.648C104.012 22.9313 102.972 23.9713 101.689 23.9713H100.041C99.6677 23.9713 99.3652 23.6688 99.3652 23.2954V10.7075C99.3652 10.3341 99.6677 10.0317 100.041 10.0317H101.689C102.33 10.0317 102.911 10.2919 103.331 10.7122C103.752 11.1324 104.012 11.7133 104.012 12.3549V14.0023C104.012 14.3757 104.314 14.6782 104.688 14.6782H107.982C108.356 14.6782 108.658 14.3757 108.658 14.0023V12.3549C108.658 11.7133 108.919 11.1324 109.339 10.7122C109.759 10.2919 110.34 10.0317 110.982 10.0317H112.629C113.003 10.0317 113.305 10.3341 113.305 10.7075Z" fill="#F0412A"/>
<path d="M91.3354 15.3761C90.9146 15.7964 90.6548 16.3772 90.6548 17.0188C90.6548 17.6605 90.9146 18.2409 91.3354 18.6616C91.7556 19.0819 92.3365 19.3421 92.9781 19.3421H95.3014C95.943 19.3421 96.5234 19.6019 96.9442 20.0226C97.3644 20.4429 97.6247 21.0237 97.6247 21.6654V23.3065C97.6247 23.6799 97.3218 23.9823 96.9488 23.9823L92.9781 23.9886C92.1632 23.9886 91.3814 23.8488 90.6548 23.592C88.6745 22.8921 87.1049 21.3224 86.4049 19.3421C86.1481 18.6156 86.0083 17.8333 86.0083 17.0188C86.0083 16.204 86.1481 15.4221 86.4049 14.6956C86.7551 13.7055 87.3224 12.818 88.0498 12.0905C88.7772 11.3632 89.6647 10.7959 90.6548 10.4457C91.3814 10.1888 92.1632 10.049 92.9781 10.049H96.9488C97.3218 10.049 97.6247 10.3514 97.6247 10.7249V12.3723C97.6247 13.6552 96.5843 14.6956 95.3014 14.6956H92.9781C92.3365 14.6956 91.7556 14.9553 91.3354 15.3761Z" fill="#F0412A"/>
<path d="M75.1634 23.3552C75.164 23.7098 74.8743 23.9999 74.5198 23.9999H71.8121C70.887 23.9999 70.0875 23.4613 69.7106 22.6812L69.7092 22.6784L69.6719 22.5977L69.6685 22.5901L69.6678 22.5887L69.6623 22.5748L69.4786 22.1758L68.1758 19.3335L67.522 17.9057C67.3743 17.584 66.9172 17.584 66.7695 17.9057L66.1149 19.3335L64.8122 22.1758L64.6292 22.5748L64.623 22.5887L64.6223 22.5901L64.6189 22.5977L64.5816 22.6784L64.5809 22.6812C64.3918 23.0712 64.0976 23.4013 63.7352 23.6332C63.3727 23.8652 62.9419 23.9999 62.4786 23.9999H59.8096C59.4776 23.9999 59.1821 23.7635 59.1353 23.4348C59.127 23.3764 59.1254 23.3191 59.13 23.2638C59.1366 23.1846 59.1621 23.1082 59.1976 23.0372L65.0677 11.271C65.4543 10.5164 66.2393 10 67.1457 10C68.0515 10 68.8372 10.5164 69.2231 11.271L69.2487 11.3214L75.0915 23.0338C75.1386 23.1281 75.1632 23.2321 75.1634 23.3376V23.3552Z" fill="#F0412A"/>
<path d="M63.2961 10.678C63.2961 10.7843 63.2712 10.8893 63.2236 10.9846L57.2965 22.7586C57.1888 22.9567 57.0535 23.1375 56.8954 23.2957C56.4743 23.7168 55.8915 23.9778 55.2481 23.9778C54.7793 23.9778 54.343 23.839 53.9778 23.6008C53.8418 23.5125 53.7154 23.4096 53.6008 23.2957C53.4303 23.1245 53.2853 22.9263 53.1734 22.7088L52.046 20.4533C51.8838 20.1288 51.4206 20.1281 51.2569 20.4526L50.0963 22.7586C49.9886 22.9567 49.8526 23.1375 49.6953 23.2957C49.5807 23.4096 49.4543 23.5125 49.3183 23.6008C48.9531 23.839 48.5168 23.9778 48.0479 23.9778C47.4045 23.9778 46.8218 23.7168 46.4007 23.2957C46.2294 23.1245 46.0845 22.9263 45.9733 22.7088L40.0435 10.8499C40.0173 10.7967 40 10.7381 40 10.6787V10.678C40 10.3038 40.3031 10 40.678 10H43.3885C43.8573 10 44.2936 10.1388 44.6595 10.377C44.7955 10.4654 44.9211 10.5682 45.0358 10.6828C45.207 10.8534 45.352 11.0515 45.4631 11.269L47.653 15.6489C47.816 15.974 48.2799 15.974 48.4421 15.6489L49.0428 14.4476L47.2816 10.9252C47.0697 10.4999 47.3782 10 47.8533 10H50.5893C50.8088 10 51.0215 10.0304 51.2231 10.0877C51.6118 10.1975 51.9591 10.4053 52.2366 10.6828C52.4078 10.8534 52.5521 11.0515 52.664 11.269L54.8539 15.6489C55.0161 15.974 55.4801 15.974 55.643 15.6489L56.138 14.6595L57.8329 11.269C58.0186 10.9065 58.2969 10.5986 58.6366 10.377C59.0025 10.1388 59.4388 10 59.9076 10H62.6181C62.993 10 63.2961 10.3038 63.2961 10.678Z" fill="#F0412A"/>
<defs>
<linearGradient id="paint0_linear_36565_34994" x1="21.5" y1="-28" x2="58.1547" y2="-10.4721" gradientUnits="userSpaceOnUse">
<stop offset="0.109375" stop-color="#FA4616"/>
<stop offset="0.6875" stop-color="#F54573"/>
</linearGradient>
</defs>
</svg>
