<svg width="322" height="325" viewBox="0 0 322 325" fill="none" xmlns="http://www.w3.org/2000/svg">
<path opacity="0.15" d="M236.471 39.5977L237.065 239.883L98.9891 160.141L93.7195 163.19L37.9924 130.986C37.466 130.694 36.8948 130.49 36.3019 130.384C35.1078 130.137 33.8672 130.251 32.7381 130.712L236.471 39.5977Z" fill="#8CC83C"/>
<path d="M213.579 164.043V201.643H210.937V165.567L213.579 164.043Z" fill="#455A64"/>
<path d="M193.819 175.461V213.061H191.177V176.924L193.819 175.461Z" fill="#455A64"/>
<path d="M163.974 173.107L206.817 148.229C210.624 146.041 216.716 146.041 220.524 148.229L220.821 148.442C222.709 149.532 223.654 150.957 223.661 152.39C223.661 152.985 223.661 155.294 223.661 155.873C223.661 157.314 222.717 158.747 220.821 159.845L177.917 184.639C174.11 186.834 168.018 186.834 164.21 184.639L163.974 184.502C162.078 183.412 161.141 181.972 161.141 180.539V177.101C161.134 175.645 162.07 174.205 163.974 173.107Z" fill="#263238"/>
<path d="M220.836 156.376L177.933 181.171C174.126 183.366 168.034 183.366 164.226 181.171L163.99 181.034C160.182 178.846 160.182 175.294 163.99 173.099L206.832 148.221C210.64 146.033 216.732 146.033 220.539 148.221L220.836 148.434C224.629 150.629 224.629 154.181 220.836 156.376Z" fill="#7387D9"/>
<path opacity="0.1" d="M220.836 156.376L177.933 181.171C174.126 183.366 168.034 183.366 164.226 181.171L163.99 181.034C160.182 178.846 160.182 175.294 163.99 173.099L206.832 148.221C210.64 146.033 216.732 146.033 220.539 148.221L220.836 148.434C224.629 150.629 224.629 154.181 220.836 156.376Z" fill="black"/>
<path opacity="0.1" d="M163.975 173.105L206.818 148.227C207.578 147.796 208.385 147.456 209.224 147.213C212.057 147.975 214.737 149.934 214.075 152.678C213.719 153.722 213.049 154.63 212.156 155.277C209.244 157.619 206.133 159.7 202.858 161.497L172.055 179.599C170.441 180.544 168.803 181.497 167.113 182.32C166.098 182.072 165.122 181.688 164.212 181.177L163.975 181.04C160.191 178.852 160.183 175.3 163.975 173.105Z" fill="black"/>
<path opacity="0.15" d="M220.837 148.441C224.644 150.629 224.644 154.181 220.837 156.376L177.933 181.171C174.126 183.366 168.034 183.366 164.226 181.171L163.99 181.033C163.312 180.655 162.702 180.165 162.186 179.585V179.456C162.186 179.456 165.361 182.184 172.215 180.911C175.405 180.302 177.926 178.564 183.005 175.812C194.016 169.829 208.698 161.048 213.595 157.893C222.063 152.405 224.317 150.705 220.837 148.441Z" fill="black"/>
<path d="M296.341 221.306C296.339 219.969 295.987 218.657 295.319 217.499C294.65 216.342 293.69 215.381 292.533 214.713L231.978 179.705C230.821 179.036 229.507 178.684 228.171 178.684C226.834 178.684 225.521 179.036 224.363 179.705L166.542 213.158C165.386 213.826 164.425 214.787 163.757 215.945C163.088 217.102 162.736 218.415 162.735 219.751L230.851 259.089L296.341 221.306Z" fill="#1E2D69"/>
<path opacity="0.5" d="M296.341 221.306C296.339 219.969 295.987 218.657 295.319 217.499C294.65 216.342 293.69 215.381 292.533 214.713L231.978 179.705C230.821 179.036 229.507 178.684 228.171 178.684C226.834 178.684 225.521 179.036 224.363 179.705L166.542 213.158C165.386 213.826 164.425 214.787 163.757 215.945C163.088 217.102 162.736 218.415 162.735 219.751L230.851 259.089L296.341 221.306Z" fill="#A3B5FF"/>
<path d="M296.341 221.307V225.712L234.659 261.353C233.515 262.013 232.217 262.36 230.897 262.36C229.577 262.36 228.279 262.013 227.135 261.353L162.742 224.158V219.752L227.135 256.948C228.276 257.616 229.575 257.969 230.897 257.969C232.219 257.969 233.518 257.616 234.659 256.948L296.341 221.307Z" fill="black"/>
<path opacity="0.25" d="M162.727 219.713L227.127 256.909C228.267 257.576 229.562 257.927 230.882 257.927C232.201 257.927 233.497 257.576 234.636 256.909L237.682 255.156L296.341 221.306C296.348 219.311 295.568 217.394 294.17 215.971L233.692 250.926C232.846 251.413 231.888 251.669 230.912 251.669C229.937 251.669 228.978 251.413 228.133 250.926L164.928 214.416C163.533 215.828 162.743 217.728 162.727 219.713Z" fill="black"/>
<path d="M241.017 78.3701C241.025 78.3108 241.038 78.2522 241.055 78.1948C241.123 77.9052 241.207 77.6384 241.298 77.3716L241.352 77.2344C241.439 76.9899 241.541 76.7507 241.656 76.5179C241.655 76.4925 241.655 76.4671 241.656 76.4417C241.773 76.2087 241.903 75.9823 242.045 75.7634L242.136 75.6185C243.781 73.1642 246.789 71.8075 249.85 71.1215C251.373 70.7785 252.965 70.5727 254.526 70.3593L256.886 70.062C257.578 70.0576 258.266 69.9523 258.927 69.7495C259.179 69.5437 259.43 69.3227 259.689 69.0864L259.78 69.0026C259.986 68.7968 260.191 68.5834 260.389 68.3623L260.526 68.2023C260.702 68.0041 260.877 67.7907 261.044 67.5772L261.212 67.3562C261.364 67.1504 261.509 66.9446 261.653 66.7236C261.714 66.6397 261.775 66.5483 261.829 66.4568C261.966 66.251 262.095 66.03 262.225 65.8089L262.4 65.504C262.522 65.283 262.636 65.062 262.75 64.8333L262.91 64.4979C263.024 64.254 263.131 64.0025 263.237 63.7357C263.283 63.629 263.329 63.5299 263.367 63.4232C263.512 63.065 263.649 62.661 263.77 62.318L266.375 54.3834C266.474 54.0862 266.58 53.8041 266.702 53.5297L266.839 53.2401C266.923 53.0724 266.999 52.9047 267.083 52.7523C267.167 52.5999 267.22 52.5236 267.289 52.4169C267.357 52.3102 267.433 52.1654 267.517 52.0511C267.601 51.9367 267.692 51.8148 267.776 51.7004C268.606 50.6334 269.885 50.0388 271.119 49.3452C272.53 48.5648 274.053 48.0069 275.635 47.6912C278.985 47.0129 282.587 47.4245 285.176 49.2157C289.151 51.5023 293.088 53.7889 297.056 56.1517C302.074 58.2097 305.927 64.8409 306.004 71.1901L306.118 80.6948C306.29 87.8562 308.557 94.8097 312.636 100.695L318.37 108.927C320.535 112.012 321.499 115.783 321.081 119.529L320.015 126.991C319.536 130.376 317.662 132.67 314.685 135.04C312.992 136.26 311.457 137.686 310.116 139.286C308.791 141.062 308.973 142.967 309.065 144.934L309.019 183.044C309.224 187.971 308.464 192.891 306.78 197.526C305.257 201.512 302.973 205.598 298.32 207.595C297.691 207.862 297.045 208.086 296.386 208.266C293.896 208.936 290.576 209.135 288.436 207.991C287.385 207.435 286.387 206.81 285.39 206.223L277.645 201.749L259.026 191.04L237.62 178.669C236.668 178.127 235.937 177.266 235.557 176.238C234.59 173.604 233.826 170.901 233.272 168.151C232.843 166.027 232.554 163.879 232.404 161.718C232.328 160.661 232.29 159.609 232.29 158.562C232.278 156.522 232.415 154.484 232.701 152.464C232.936 150.797 233.29 149.149 233.76 147.533C233.912 147.007 234.079 146.489 234.254 146.008L239.288 129.842L244.299 113.668C245.535 110.424 245.823 106.894 245.129 103.492C244.669 101.302 243.771 99.2274 242.486 97.3948C241.943 96.6078 241.472 95.7737 241.078 94.9024C240.29 93.1817 239.818 91.3331 239.684 89.445C239.618 88.555 239.649 87.6606 239.775 86.7773L240.842 79.3229C240.887 78.9646 240.948 78.6597 241.017 78.3701Z" fill="black"/>
<path d="M236.851 80.2381C236.851 80.1848 236.851 80.1238 236.889 80.0628C236.956 79.7871 237.038 79.5148 237.132 79.2472L237.186 79.1024C237.275 78.8585 237.376 78.6193 237.49 78.386V78.3097C237.612 78.0734 237.742 77.8524 237.879 77.6314L237.97 77.4942C239.615 75.0399 242.615 73.6831 245.684 72.9971C247.207 72.6465 248.799 72.4483 250.36 72.2349C251.121 72.1435 251.928 72.052 252.713 71.9453C253.407 71.9377 254.096 71.8325 254.761 71.6328C255.013 71.4194 255.264 71.1983 255.523 70.9697L255.606 70.8782C255.82 70.68 256.025 70.4666 256.223 70.2456L256.36 70.0855C256.536 69.8797 256.711 69.6739 256.878 69.4529L257.038 69.2395C257.198 69.0337 257.343 68.8202 257.487 68.6068C257.548 68.5154 257.609 68.4315 257.663 68.34C257.8 68.1266 257.929 67.9132 258.059 67.6922L258.234 67.3873C258.356 67.1662 258.47 66.9376 258.576 66.7089C258.637 66.6022 258.691 66.4879 258.744 66.3812C258.858 66.1373 258.965 65.8857 259.071 65.619C259.071 65.5123 259.163 65.4132 259.201 65.3065C259.345 64.9406 259.475 64.5442 259.604 64.1936L262.209 56.2667C262.308 55.9694 262.414 55.6874 262.536 55.413C262.574 55.3139 262.628 55.2224 262.673 55.1234C262.745 54.9563 262.827 54.7934 262.917 54.6355C262.978 54.5136 263.054 54.4069 263.123 54.2926C263.191 54.1782 263.267 54.0486 263.351 53.9267C263.427 53.8208 263.508 53.7191 263.595 53.6218C264.425 52.5471 265.704 51.9526 266.938 51.2666C268.348 50.4849 269.872 49.9269 271.453 49.6126C274.804 48.9342 278.398 49.3382 280.995 51.137L292.875 58.0655C297.893 60.1311 301.739 66.7623 301.815 73.1115L301.959 82.5857C302.137 89.7497 304.406 96.7049 308.485 102.594L314.22 110.826C316.381 113.923 317.335 117.705 316.9 121.458L315.834 128.92C315.347 132.305 313.481 134.599 310.503 136.969C308.81 138.189 307.275 139.615 305.934 141.215C304.609 142.991 304.792 144.889 304.884 146.863L304.838 184.973C305.042 189.9 304.282 194.82 302.599 199.455C301.076 203.441 298.791 207.527 294.131 209.516C293.505 209.785 292.862 210.009 292.204 210.187C289.714 210.858 286.394 211.064 284.247 209.92C283.203 209.364 282.206 208.739 281.201 208.152L273.494 203.662L254.883 192.915L238.465 183.449L233.431 180.545C232.481 180.001 231.75 179.14 231.368 178.113C230.406 175.478 229.643 172.775 229.083 170.026C228.661 167.902 228.374 165.754 228.223 163.593C228.147 162.526 228.108 161.474 228.108 160.438C228.097 158.398 228.234 156.36 228.52 154.34C228.754 152.673 229.108 151.025 229.578 149.408C229.73 148.883 229.898 148.364 230.073 147.884L235.084 131.71L240.095 115.536C241.329 112.294 241.617 108.768 240.925 105.368C240.458 103.18 239.559 101.107 238.282 99.2705C236.66 96.9275 235.693 94.1936 235.48 91.3511C235.416 90.4614 235.444 89.5673 235.564 88.6834L236.63 81.2214C236.685 80.8897 236.758 80.5614 236.851 80.2381Z" fill="#A3B5FF"/>
<path opacity="0.3" d="M236.851 80.2381C236.851 80.1848 236.851 80.1238 236.889 80.0628C236.956 79.7871 237.038 79.5148 237.132 79.2472L237.186 79.1024C237.275 78.8585 237.376 78.6193 237.49 78.386V78.3097C237.612 78.0734 237.742 77.8524 237.879 77.6314L237.97 77.4942C239.615 75.0399 242.615 73.6831 245.684 72.9971C247.207 72.6465 248.799 72.4483 250.36 72.2349C251.121 72.1435 251.928 72.052 252.713 71.9453C253.407 71.9377 254.096 71.8325 254.761 71.6328C255.012 71.4194 255.264 71.1983 255.523 70.9697L255.606 70.8782C255.82 70.68 256.025 70.4666 256.223 70.2456L256.36 70.0855C256.535 69.8797 256.711 69.6739 256.878 69.4529L257.038 69.2395C257.198 69.0337 257.343 68.8202 257.487 68.6068C257.548 68.5154 257.609 68.4315 257.663 68.34C257.8 68.1266 257.929 67.9132 258.059 67.6922L258.234 67.3873C258.355 67.1662 258.47 66.9376 258.576 66.7089C258.637 66.6022 258.691 66.4879 258.744 66.3812C258.858 66.1373 258.965 65.8857 259.071 65.619C259.071 65.5123 259.163 65.4132 259.201 65.3065C259.345 64.9406 259.475 64.5442 259.604 64.1936L262.209 56.2667C262.308 55.9694 262.414 55.6874 262.536 55.413C262.574 55.3139 262.628 55.2224 262.673 55.1234C262.745 54.9563 262.827 54.7934 262.917 54.6355C262.978 54.5136 263.054 54.4069 263.123 54.2926C263.191 54.1782 263.267 54.0486 263.351 53.9267C263.427 53.8208 263.508 53.7191 263.595 53.6218C264.425 52.5471 265.704 51.9526 266.938 51.2666C268.348 50.4849 269.872 49.9269 271.453 49.6126C274.804 48.9342 278.398 49.3382 280.995 51.137L292.875 58.0655C297.893 60.1311 301.739 66.7623 301.815 73.1115L301.959 82.5857C302.137 89.7497 304.406 96.7049 308.485 102.594L314.22 110.826C316.381 113.923 317.335 117.705 316.9 121.458L315.834 128.92C315.347 132.305 313.481 134.599 310.503 136.969C308.81 138.189 307.275 139.615 305.934 141.215C304.609 142.991 304.792 144.889 304.884 146.863L304.838 184.973C305.042 189.9 304.282 194.82 302.599 199.455C301.076 203.441 298.791 207.527 294.131 209.516C293.505 209.785 292.862 210.009 292.204 210.187C289.714 210.858 286.394 211.064 284.247 209.92C283.203 209.364 282.206 208.739 281.201 208.152L273.494 203.662L254.883 192.915L233.477 180.545C232.524 180.003 231.793 179.142 231.413 178.113C230.452 175.478 229.688 172.775 229.129 170.026C228.707 167.902 228.42 165.754 228.268 163.593C228.192 162.526 228.154 161.474 228.154 160.438C228.142 158.398 228.28 156.36 228.565 154.34C228.8 152.673 229.153 151.025 229.624 149.408C229.776 148.883 229.944 148.364 230.119 147.884L235.13 131.71L240.14 115.536C241.375 112.294 241.663 108.768 240.97 105.368C240.503 103.18 239.605 101.107 238.328 99.2705C236.706 96.9275 235.739 94.1936 235.526 91.3511C235.461 90.4614 235.489 89.5673 235.609 88.6834L236.675 81.2214C236.715 80.8906 236.774 80.5623 236.851 80.2381Z" fill="black"/>
<path opacity="0.15" d="M288.679 105.734C277.419 96.6689 266.722 90.5407 256.589 87.3496L288.679 105.734Z" fill="black"/>
<path d="M290.461 116.047L296.119 101.428C297.488 98.1543 300.057 95.5302 303.3 94.0953L304.001 93.7676C305.089 96.9042 306.598 99.8785 308.486 102.609L312.118 107.83L311.395 108.143C308.133 109.485 305.494 112.004 304.001 115.201L296.82 131.596L291.245 128.921C291.245 128.921 292.905 178.19 284.224 209.875L284.08 209.783C284.704 201.872 288.58 147.549 278.749 114.362L290.461 116.047Z" fill="#1E2D69"/>
<path d="M246.896 73.1785L247.931 72.584C248.822 72.4544 250.444 72.1953 251.739 72.0505C252.764 72.0074 253.784 71.8722 254.785 71.6465L253.947 97.8283L262.72 110.405C245.647 128.065 238.016 174.895 236.455 182.273L236.295 182.182C237.308 146.061 253.193 107.996 253.193 107.996L246.34 102.402L244.322 77.5688C244.291 76.6682 244.517 75.7773 244.972 75C245.428 74.2227 246.095 73.5911 246.896 73.1785Z" fill="#8CC83C"/>
<path d="M272.437 71.1523L266.261 70.9922C265.713 70.9922 265.56 72.0059 266.032 72.5852L271.264 79.0259C271.622 79.4679 272.102 79.3079 272.193 78.7134L273.137 72.4251C273.229 71.8154 272.863 71.1523 272.437 71.1523Z" fill="#263238"/>
<path d="M281.727 76.4887L287.005 82.9522C287.477 83.5315 287.324 84.5605 286.776 84.5453L280.684 84.4157C280.258 84.4157 279.923 83.7602 279.976 83.158L280.836 76.8241C280.882 76.2372 281.362 76.0695 281.727 76.4887Z" fill="#263238"/>
<path opacity="0.2" d="M300.147 186.901C300.147 177.549 300.299 156.146 300.611 150.513C300.817 146.794 303.421 143.768 305.843 141.367C304.64 143.097 304.8 144.949 304.891 146.862L304.845 184.973C305.05 189.9 304.289 194.82 302.607 199.455C301.084 203.441 298.799 207.527 294.139 209.516C293.513 209.785 292.869 210.009 292.212 210.187C291.41 210.4 290.593 210.55 289.768 210.636C296.058 207.336 300.147 196.246 300.147 186.901ZM266.945 51.2282C268.356 50.4465 269.879 49.8885 271.461 49.5742C274.478 48.8707 277.648 49.2737 280.393 50.7099L294.101 58.6292C298.517 61.175 301.761 67.2421 301.83 73.073L301.959 82.5854C302.137 89.7493 304.406 96.7046 308.485 102.593L314.22 110.825C316.381 113.922 317.335 117.705 316.9 121.458L315.834 128.92C315.347 132.304 313.481 134.598 310.503 136.969L309.095 138.105C311.463 135.368 311.143 131.077 312.103 123.425C313.062 115.772 307.092 109.705 302.584 104.438C298.076 99.171 295.951 88.4315 295.685 77.8673C295.418 67.3031 293.4 64.6049 282.899 58.37C274.157 53.1718 267.73 51.19 264.866 52.4858C265.545 52.0407 266.247 51.6311 266.968 51.2586L266.945 51.2282Z" fill="black"/>
<path opacity="0.15" d="M276.693 189.753C282.023 173.106 288.382 140.629 287.628 113.334C290.179 122.336 288.801 146.421 283.935 166.003C279.16 185.233 276.693 189.753 276.693 189.753Z" fill="black"/>
<path opacity="0.15" d="M244.734 171.277C244.612 151.459 247.78 117.16 255.661 94.8652C251.092 99.7586 245.929 121.649 244.871 143.433C243.797 164.821 244.734 171.277 244.734 171.277Z" fill="black"/>
<path d="M161.461 235.98L187.139 250.82L188.167 251.414C188.167 251.3 188.228 251.193 188.251 251.079C188.35 250.721 188.434 250.37 188.518 250.027C188.602 249.684 188.647 249.463 188.701 249.181C188.754 248.899 188.784 248.792 188.822 248.594C188.929 248.114 189.013 247.634 189.096 247.138L189.211 246.376C189.47 244.707 189.66 242.855 189.843 240.477C189.843 240.141 189.896 239.791 189.927 239.432C189.957 239.074 189.972 238.67 190.003 238.312C190.513 230.911 191.282 229.348 195.63 227.161C196.316 226.818 197.603 226.254 199.285 225.53C198.05 226.882 197.042 228.427 196.3 230.103C195.173 233.419 194.282 243.411 193.605 254.494L215.003 266.857L215.841 267.344L221.384 270.546C222.566 265.409 223.201 260.161 223.281 254.89C223.281 249.951 223.555 247.718 227.21 245.347C230.416 243.266 242.356 235.393 254.053 228.579C268.164 220.392 272.9 216.734 278.063 210.712C281.505 206.734 285.001 202.328 285.739 185.811L221.902 171.992C206.345 180.537 167.759 204.767 164.789 213.472C163.731 216.658 162.535 225.735 161.461 235.98Z" fill="#37474F"/>
<path d="M215.003 266.917L215.841 267.405C216.26 265.24 216.557 263.449 216.701 262.192C217.067 258.952 217.295 256.178 217.463 253.739C217.844 249.165 218.11 245.865 218.986 243.594C220.136 240.545 239.767 226.932 250.314 219.615L253.756 217.229L256.239 215.522C265.247 209.355 273.335 199.576 275.276 183.661L274.37 183.547C272.436 199.05 264.821 208.509 255.683 214.797C254.868 215.346 254.046 215.918 253.193 216.505L249.758 218.89C234.368 229.561 219.245 240.232 218.087 243.281C217.189 245.667 216.907 249.021 216.526 253.67C216.328 256.109 216.1 258.868 215.765 262.092C215.62 263.266 215.384 264.92 215.003 266.917Z" fill="#263238"/>
<path d="M260.549 212.245L261.097 211.483C257.343 208.693 256.368 191.536 261.485 183.281L260.724 182.801C255.287 191.581 256.551 209.257 260.549 212.245Z" fill="#263238"/>
<path d="M187.139 250.82L188.167 251.415C188.167 251.3 188.228 251.193 188.251 251.079C188.35 250.721 188.433 250.37 188.517 250.027C188.601 249.684 188.647 249.463 188.7 249.181C188.753 248.899 188.784 248.793 188.822 248.594C188.928 248.114 189.012 247.634 189.096 247.139L189.21 246.376C189.469 244.707 189.659 242.855 189.842 240.477C189.842 240.141 189.895 239.791 189.926 239.433C189.956 239.074 189.972 238.67 190.002 238.312C190.512 230.911 191.281 229.349 195.63 227.161C196.315 226.818 197.602 226.254 199.285 225.53C208.917 215.525 219.191 206.161 230.042 197.496C230.042 197.496 222.754 194.074 221.414 183.418C221.414 183.418 220.31 191.993 224.97 197.214L200.336 218.845C200.336 218.845 188.532 225.042 187.542 227.672C186.552 230.301 188.014 233.457 188.075 242.817C188.075 243.731 187.641 247.222 187.139 250.82Z" fill="#263238"/>
<path d="M234.887 97.8324C226.077 99.7913 223.023 103.93 213.961 116.423C207.869 124.891 199.805 136.011 199.805 136.011C199.805 136.011 184.057 115.432 183.052 111.941C181.818 107.772 183.052 104.807 182.572 100.18C182.092 95.5534 181.049 92.558 181.65 90.439C182.252 88.3201 178.406 88.8308 177.508 91.5442C176.609 94.2577 177.317 97.5809 176.122 97.2684C174.926 96.9559 172.314 90.1341 171.873 84.8444C171.431 79.5547 168.233 78.9907 167.623 80.8733C167.274 81.8808 167.037 82.9237 166.915 83.9831C166.434 83.984 165.953 84.0197 165.476 84.0898C165.122 84.1006 164.776 84.1953 164.467 84.3663C164.157 84.5373 163.892 84.7795 163.694 85.0731C163.298 85.6676 163.085 86.3764 162.636 86.9329C162.125 87.4487 161.569 87.918 160.975 88.3353C156.939 91.8034 159.392 99.6389 160.663 103.778C163.329 112.436 168.476 115.775 170.487 118.686C171.248 119.754 172.687 123.603 176.251 131.469C180.318 140.44 184.095 149.762 190.88 158.055C196.561 165.006 202.5 163.009 207.504 158.443C214.639 151.926 234.156 131.766 234.156 131.766C240.302 117.978 234.887 97.8324 234.887 97.8324Z" fill="#FFBDA7"/>
<path d="M237.065 97.5879C228.331 98.1443 225.788 100.759 221.005 106.361C216.223 111.963 199.683 135.081 199.683 135.081L196.074 131.087C196.074 131.087 196.233 136.049 191.192 140.371C186.151 144.692 181.757 143.48 181.757 143.48C183.361 147.278 185.271 150.939 187.469 154.426C190.964 159.921 194.604 163.405 198.944 163.023C203.285 162.642 204.892 161.941 213.832 153.389C222.772 144.837 235.154 131.499 235.154 131.499L237.065 97.5879Z" fill="#37474F"/>
<path d="M174.317 100.119C174.317 100.119 169.794 104.913 173.64 112.68C173.64 112.68 169.604 109.167 170.556 105.058C171.507 100.95 174.317 100.119 174.317 100.119Z" fill="#F0997A"/>
<path d="M199.683 135.081C199.683 135.081 203.719 139.144 205.303 148.161C205.691 145.496 205.519 142.78 204.796 140.186C204.073 137.592 202.817 135.178 201.107 133.1L199.683 135.081Z" fill="#263238"/>
<path d="M267.343 101.564C271.15 102.761 278.263 105.978 278.263 105.978C278.263 105.978 282.413 111.748 285.116 125.65C288.848 144.797 287.401 166.863 286.045 186.292C280.57 189.467 274.518 191.518 268.241 192.323C261.965 193.127 255.591 192.671 249.493 190.979C228.932 185.179 220.205 172.884 220.205 172.884C222.439 168.532 224.238 163.97 225.574 159.264V145.369C225.574 145.369 213.771 138.509 218.035 123.615C222.201 109.072 237.027 97.5858 237.027 97.5858L242.929 97.2656C251.231 97.5165 259.453 98.9643 267.343 101.564Z" fill="#455A64"/>
<path d="M260.952 92.6625C261.904 87.7234 266.131 84.7813 270.585 79.7584C278.391 70.9548 280.119 56.4424 269.26 52.9363C265.453 34.9558 245.753 35.596 236.462 39.5976C222.291 45.6953 226.235 58.9196 226.235 58.9196L260.952 92.6625Z" fill="black"/>
<path d="M233.896 44.0339C231.885 43.8888 229.872 44.2725 228.055 45.1469C226.238 46.0213 224.682 47.3561 223.54 49.0187C220.494 53.4014 220.105 58.7902 220.448 63.9656C220.593 66.1684 220.928 68.394 220.524 70.5663C220.12 72.7386 218.773 74.9033 216.663 75.5359C217.526 75.8317 218.451 75.893 219.345 75.7136C220.238 75.5341 221.068 75.1204 221.75 74.5146C221.614 75.9196 220.926 77.2133 219.839 78.1122C225.672 77.7082 231.056 74.9871 236.264 72.3194C238.876 70.9779 240.833 68.0739 242.41 65.6806C244.184 63.0052 245.654 59.8573 245.334 56.5341C243.209 45.0476 235.419 44.1025 233.896 44.0339Z" fill="black"/>
<path d="M272.389 71.7923C270.699 69.6658 267.104 68.6292 265.193 71.335C263.997 73.0119 263.67 75.489 261.918 75.3823C261.546 75.3764 261.18 75.277 260.856 75.0932C260.531 74.9095 260.258 74.6472 260.06 74.3305C259.738 73.4498 259.583 72.5166 259.603 71.5789C257.471 70.9539 255.971 68.9798 256.557 65.4812C258.027 57.0969 250.024 54.0481 245.333 56.5329C242.576 52.2722 238.776 50.3743 234.07 51.4642C230.598 52.2722 225.122 54.2463 225.061 71.3883C225.016 84.7727 228.701 90.6265 231.854 92.4329C234.085 93.721 236.88 94.1174 241.365 93.8506L242.173 100.421C242.173 100.421 234.9 106.115 237.695 113.195C237.695 113.195 244.716 112.647 250.29 110.192C259.314 106.221 263.35 100.794 263.35 100.794L261.538 81.9983C261.538 81.9983 264.317 86.3124 269.153 82.9358C273.113 80.1842 274.902 74.9631 272.389 71.7923Z" fill="#FFBDA7"/>
<path d="M244.109 68.6465C244.038 69.1717 244.174 69.7038 244.488 70.1305C244.802 70.5571 245.269 70.8449 245.791 70.9331C246.044 70.9799 246.304 70.975 246.554 70.9187C246.805 70.8624 247.042 70.7559 247.25 70.6057C247.458 70.4554 247.634 70.2645 247.767 70.0443C247.9 69.8242 247.987 69.5795 248.023 69.3249C248.091 68.8 247.955 68.2689 247.641 67.8427C247.327 67.4165 246.861 67.1282 246.34 67.0383C246.087 66.9926 245.828 66.9983 245.578 67.0551C245.328 67.1118 245.091 67.2184 244.883 67.3685C244.675 67.5186 244.499 67.7091 244.366 67.9286C244.233 68.1482 244.145 68.3924 244.109 68.6465Z" fill="#263238"/>
<path d="M227.964 64.1102L232.282 62.2199C232.171 61.9319 232.003 61.6693 231.788 61.448C231.573 61.2267 231.315 61.0513 231.031 60.9324C230.746 60.8134 230.44 60.7534 230.132 60.7559C229.824 60.7585 229.519 60.8235 229.236 60.947C228.659 61.2096 228.204 61.6847 227.967 62.2737C227.731 62.8627 227.73 63.5204 227.964 64.1102Z" fill="#263238"/>
<path d="M245.607 63.1339L249.682 65.512C249.847 65.2533 249.959 64.9639 250.01 64.6611C250.061 64.3583 250.051 64.0483 249.98 63.7495C249.909 63.4507 249.778 63.1693 249.596 62.9221C249.414 62.6749 249.184 62.467 248.92 62.3107C248.368 61.9961 247.716 61.9061 247.099 62.0593C246.483 62.2126 245.948 62.5973 245.607 63.1339Z" fill="#263238"/>
<path d="M244.253 80.5801L236.463 82.8134C236.62 83.3564 236.888 83.8608 237.251 84.2943C237.613 84.7279 238.062 85.081 238.569 85.3313C239.075 85.5816 239.628 85.7234 240.193 85.7479C240.757 85.7724 241.32 85.6789 241.847 85.4735C243.979 84.7798 244.794 82.7752 244.253 80.5801Z" fill="#B16668"/>
<path d="M239.623 85.6356C239.771 84.5894 240.304 83.6361 241.116 82.9611C241.928 82.2862 242.962 81.9381 244.017 81.9846C244.147 81.9975 244.277 82.0178 244.405 82.0456C244.406 82.8171 244.157 83.568 243.696 84.1862C243.234 84.8044 242.586 85.2567 241.847 85.4755C241.129 85.7081 240.366 85.763 239.623 85.6356Z" fill="#F28F8F"/>
<path d="M229.067 67.517C228.993 68.0416 229.126 68.5748 229.439 69.0022C229.752 69.4296 230.22 69.7172 230.743 69.8036C230.995 69.8503 231.255 69.8454 231.505 69.7891C231.756 69.7328 231.993 69.6263 232.201 69.4761C232.41 69.3258 232.586 69.1349 232.718 68.9148C232.851 68.6947 232.938 68.4499 232.974 68.1953C233.047 67.6709 232.912 67.1388 232.6 66.7119C232.287 66.285 231.82 65.9969 231.299 65.9087C231.046 65.862 230.786 65.8669 230.536 65.9232C230.285 65.9794 230.048 66.0859 229.84 66.2362C229.632 66.3864 229.456 66.5774 229.323 66.7975C229.19 67.0176 229.103 67.2623 229.067 67.517Z" fill="#263238"/>
<path d="M238.542 66.3496L237.841 78.6212L231.117 76.5937L238.542 66.3496Z" fill="#F0997A"/>
<path d="M241.389 93.8813C246.126 93.4011 256.208 91.3431 258.097 87.7227C257.288 89.8013 255.867 91.5849 254.023 92.8371C250.916 94.9712 241.679 96.389 241.679 96.389L241.389 93.8813Z" fill="#F0997A"/>
<path d="M263.991 69.2474L271.043 69.8267C271.043 69.8267 273.007 63.0126 273.86 58.9043C274.028 58.1421 274.15 57.3799 274.211 56.892C274.211 56.6558 274.264 56.4271 274.287 56.1908C274.591 53.2487 274.599 50.5657 271.713 47.7303C269.758 45.8989 267.415 44.5335 264.859 43.7363C265.741 44.7207 266.507 45.8024 267.144 46.9605C267.733 47.4136 268.226 47.9801 268.594 48.6268C268.961 49.2734 269.196 49.9871 269.284 50.7258C269.312 51.2917 269.279 51.8591 269.185 52.4179C269.07 53.1801 268.888 54.0642 268.644 55.0399C267.189 60.7641 263.991 69.2474 263.991 69.2474Z" fill="#455A64"/>
<path d="M259.627 81.1311C258.462 76.4968 260.313 70.0181 263.739 66.6491C264.604 65.7596 265.685 65.1108 266.877 64.7665C267.605 64.5674 268.372 64.5674 269.1 64.7665L271.537 65.4525C273.19 65.9326 274.492 67.4952 275.086 69.8656C276.251 74.4999 274.4 80.9786 270.974 84.3476C270.109 85.2371 269.028 85.8859 267.836 86.2302C267.104 86.4328 266.33 86.4328 265.597 86.2302L263.191 85.5519C261.531 85.0717 260.221 83.5092 259.627 81.1311Z" fill="#37474F"/>
<path d="M267.836 86.252C269.028 85.9077 270.109 85.2588 270.974 84.3693C274.4 81.0385 276.251 74.5597 275.086 69.8874C274.256 66.5794 271.971 64.8263 269.291 65.4971C268.099 65.8357 267.019 66.4854 266.161 67.3797C262.727 70.703 260.884 77.1817 262.049 81.8236C262.886 85.1849 265.163 86.9227 267.836 86.252Z" fill="#263238"/>
<path d="M262.567 81.6938C261.44 77.2121 263.214 70.9772 266.534 67.7607C268.187 66.1524 269.915 65.6113 271.37 66.0229L272.573 66.3658C274.027 66.7851 275.208 68.157 275.771 70.3979C276.898 74.8797 275.124 81.1146 271.804 84.3235C270.151 85.9317 268.423 86.4805 266.968 86.0613L265.758 85.7183C264.303 85.3067 263.123 83.9271 262.567 81.6938Z" fill="#F0F0F0"/>
<path d="M267.738 68.1032C264.426 71.3197 262.651 77.5546 263.771 82.0364C264.89 86.5182 268.492 87.5395 271.805 84.323C275.117 81.1065 276.899 74.8793 275.78 70.3898C274.66 65.9004 271.051 64.8943 267.738 68.1032Z" fill="#E0E0E0"/>
<path d="M263.77 82.0368C262.651 77.555 264.425 71.3201 267.738 68.1036C269.39 66.503 271.119 65.9542 272.573 66.3658C272.977 66.4877 273.723 66.7469 274.096 66.8688C275.551 67.2804 276.731 68.66 277.287 70.8933C278.414 75.3751 276.64 81.6099 273.32 84.8188C271.667 86.4271 269.946 86.9683 268.492 86.5567C268.088 86.4424 267.342 86.1756 266.969 86.0612C265.514 85.6344 264.357 84.2701 263.77 82.0368Z" fill="#859CF8"/>
<path opacity="0.15" d="M269.283 68.5985C265.97 71.815 264.196 78.0498 265.316 82.5316C266.435 87.0134 270.037 88.0348 273.349 84.8182C276.662 81.6017 278.444 75.3745 277.302 70.8927C276.159 66.4109 272.596 65.3896 269.283 68.5985Z" fill="white"/>
<path d="M271.118 72.8522C270.22 73.8199 269.562 74.9865 269.2 76.2567C268.837 77.527 268.78 78.8651 269.032 80.1618C269.626 82.5171 271.514 83.0582 273.25 81.3661C274.149 80.3984 274.806 79.2319 275.169 77.9616C275.532 76.6914 275.589 75.3533 275.337 74.0565C274.743 71.7013 272.854 71.1525 271.118 72.8522Z" fill="#263238"/>
<path d="M269.649 75.5287L272.375 77.1598L273.845 71.9921C273.379 71.9037 272.897 71.9411 272.45 72.1005C272.003 72.2599 271.607 72.5355 271.301 72.8991C270.57 73.6483 270.007 74.5447 269.649 75.5287Z" fill="#455A64"/>
<path d="M269.223 80.2245C269.289 80.6942 269.478 81.1378 269.773 81.5091C270.068 81.8804 270.456 82.1659 270.899 82.3358L272.376 77.1604L269.65 75.5293C269.047 77.0178 268.899 78.6516 269.223 80.2245Z" fill="#37474F"/>
<path d="M270.899 82.3352C271.366 82.4243 271.848 82.3865 272.295 82.2256C272.743 82.0647 273.139 81.7867 273.442 81.4205C274.181 80.6715 274.745 79.7684 275.095 78.7757L272.376 77.1445L270.899 82.3352Z" fill="#455A64"/>
<path d="M272.376 77.1596L275.094 78.7755C275.697 77.2922 275.845 75.6633 275.521 74.0955C275.455 73.6253 275.265 73.1811 274.97 72.8088C274.676 72.4364 274.288 72.1491 273.846 71.9766L272.376 77.1596Z" fill="#37474F"/>
<path d="M225.52 78.7754C223.998 79.7432 222.597 80.8895 221.347 82.1901C220.558 82.9964 220.116 84.0799 220.116 85.2084C220.116 86.3369 220.558 87.4205 221.347 88.2268L223.06 87.4112C223.06 87.4112 221.591 85.5286 222.383 84.1185C223.175 82.7084 225.878 81.0696 225.878 81.0696L225.52 78.7754Z" fill="black"/>
<path d="M221.781 86.8625C223.061 85.7802 223.99 86.5119 225.658 88.7299C227.325 90.948 226.792 91.7788 225.658 92.6248C224.523 93.4709 223.373 92.8535 222.056 91.0013C220.601 88.9129 220.396 88.0287 221.781 86.8625Z" fill="#1E2D69"/>
<path opacity="0.1" d="M221.781 86.8625C223.061 85.7802 223.99 86.5119 225.658 88.7299C227.325 90.948 226.792 91.7788 225.658 92.6248C224.523 93.4709 223.373 92.8535 222.056 91.0013C220.601 88.9129 220.396 88.0287 221.781 86.8625Z" fill="#A3B5FF"/>
<path d="M271.34 240.111L275.407 242.459C275.848 242.718 276.35 242.854 276.861 242.855C277.37 242.855 277.87 242.718 278.308 242.459C278.75 242.207 279.118 241.842 279.374 241.401C279.629 240.961 279.763 240.46 279.763 239.951V202.344L277.12 203.868V239.951C277.123 239.997 277.112 240.042 277.089 240.081C277.066 240.121 277.032 240.152 276.991 240.172C276.953 240.198 276.908 240.212 276.861 240.212C276.815 240.212 276.77 240.198 276.732 240.172L273.975 238.579L271.34 240.111Z" fill="#455A64"/>
<path d="M251.533 251.56L255.645 253.846C256.086 254.1 256.586 254.233 257.094 254.232C257.602 254.232 258.102 254.098 258.542 253.844C258.983 253.591 259.35 253.226 259.606 252.786C259.861 252.347 259.998 251.848 260.001 251.339V213.77L257.359 215.233V251.369C257.36 251.415 257.349 251.46 257.326 251.499C257.303 251.538 257.27 251.57 257.229 251.59C257.191 251.617 257.146 251.631 257.1 251.631C257.053 251.631 257.008 251.617 256.97 251.59L254.221 250.005L251.533 251.56Z" fill="#455A64"/>
<path d="M230.158 211.398L273 186.535C276.808 184.34 282.9 184.34 286.707 186.535L287.004 186.741C288.893 187.838 289.837 189.264 289.837 190.689C289.837 191.284 289.837 193.593 289.837 194.18C289.837 195.613 288.9 197.054 287.004 198.151L244.093 222.946C240.286 225.133 234.194 225.141 230.386 222.946L230.15 222.816C228.254 221.719 227.31 220.286 227.317 218.853V215.385C227.317 213.952 228.254 212.511 230.158 211.398Z" fill="#263238"/>
<path d="M287.02 194.675L244.109 219.478C240.302 221.665 234.21 221.665 230.402 219.478L230.166 219.348C226.358 217.153 226.358 213.601 230.166 211.406L273.001 186.535C276.808 184.34 282.9 184.34 286.708 186.535L287.005 186.741C290.812 188.936 290.812 192.488 287.02 194.675Z" fill="#7387D9"/>
<path opacity="0.1" d="M287.02 194.675L244.109 219.478C240.302 221.665 234.21 221.665 230.402 219.478L230.166 219.348C226.358 217.153 226.358 213.601 230.166 211.406L273.001 186.535C276.808 184.34 282.9 184.34 286.708 186.535L287.005 186.741C290.812 188.936 290.812 192.488 287.02 194.675Z" fill="black"/>
<path opacity="0.1" d="M230.157 211.399L272.999 186.536C273.756 186.089 274.564 185.736 275.406 185.484C278.239 186.247 280.919 188.205 280.257 190.957C279.899 191.998 279.229 192.904 278.338 193.549C275.428 195.895 272.317 197.979 269.04 199.776L238.229 217.878C236.622 218.823 234.985 219.776 233.294 220.599C232.28 220.349 231.304 219.962 230.393 219.448L230.157 219.319C226.365 217.154 226.365 213.602 230.157 211.399Z" fill="black"/>
<path opacity="0.15" d="M287.018 186.742C290.826 188.937 290.826 192.489 287.018 194.677L244.108 219.479C240.3 221.667 234.208 221.667 230.4 219.479L230.164 219.349C229.49 218.966 228.88 218.477 228.36 217.901V217.764C228.36 217.764 231.573 220.485 238.411 219.189C241.602 218.587 244.123 216.849 249.202 214.09C260.183 208.115 274.865 199.326 279.761 196.155C288.244 190.706 290.498 189.014 287.018 186.742Z" fill="#1E2D69"/>
<path d="M258.265 199.571C257.101 200.242 255.973 200.972 254.884 201.758C253.597 202.795 254.084 202.993 251.472 205.082C248.365 207.589 243.796 208.428 240.666 209.48C237.536 210.531 232.518 213.138 230.135 215.417C227.751 217.696 222.611 214.655 221.393 215.76C220.174 216.865 217.258 216.683 218.841 213.054C220.425 209.426 222.786 204.35 225.55 202.033C226.166 201.463 226.82 200.935 227.507 200.455C226.346 200.741 225.169 200.955 223.982 201.095C222.772 201.189 221.562 200.924 220.502 200.333C220.083 200.089 219.664 199.571 219.9 199.175C219.985 199.019 220.119 198.896 220.281 198.824C222.634 197.81 224.37 196.697 226.472 195.684C227.386 195.234 228.581 194.281 229.594 194.159C230.607 194.037 231.429 193.87 232.929 193.633C237.026 193.012 241.015 191.816 244.778 190.081C245.959 189.495 248.723 188.016 248.723 188.016C249.424 187.673 251.007 189.235 253.444 191.629C255.729 193.799 257.393 196.541 258.265 199.571Z" fill="#FFBDA7"/>
<path d="M228.161 198.246C229.61 197.591 231.179 197.243 232.769 197.225C230.891 198.086 229.124 199.171 227.507 200.456C226.346 200.742 225.168 200.956 223.981 201.097C222.916 201.176 221.849 200.99 220.874 200.555C223.044 201.043 226.182 199.267 228.161 198.246Z" fill="#F0997A"/>
<path d="M254.648 201.942C258.281 198.817 268.211 196.332 280.539 190.181C287.028 186.942 291.269 184.716 294.026 182.864C298.412 179.906 301.077 178.954 300.879 171.347C300.674 162.33 296.584 136.788 294.726 128.259C290.348 108.198 278.735 107.131 278.735 107.131C278.735 107.131 270.937 112.337 271.287 126.628C271.455 133.221 272.567 142.269 272.567 142.269L276.374 167.345C276.374 167.345 266.177 175.669 259.979 180.051C252.097 185.615 248.762 187.887 245.784 189.587C242.807 191.286 254.648 201.942 254.648 201.942Z" fill="#FFBDA7"/>
<path d="M278.262 105.979C282.999 107.93 288.566 110.186 291.672 115.887C295.823 123.509 296.965 136.581 297.97 143.327C298.975 150.072 301.427 168.533 301.603 172.291C301.778 176.048 300.841 179.219 296.173 182.047C293.067 183.894 289.87 185.583 286.593 187.108C286.593 187.108 287.248 181.407 281.659 176.765C278.392 174.004 274.308 172.397 270.038 172.192L275.978 167.268C275.978 167.268 272.071 144.851 270.899 136.894C268.858 123.052 270.038 111.215 278.262 105.979Z" fill="#37474F"/>
<path d="M275.978 167.276C279.024 165.111 289.152 164.12 292.259 168.838C290.5 164.806 283.189 160.972 275.437 164.471L275.978 167.276Z" fill="#263238"/>
<path d="M173.22 317.422L272.208 260.218L98.9805 160.117L-3.05176e-05 217.313L173.22 317.422Z" fill="#797979"/>
<path d="M272.208 260.219V267.368L173.22 324.572V317.422L272.208 260.219Z" fill="#565656"/>
<path opacity="0.65" d="M173.22 317.421L-0.000106812 217.312V224.462L173.22 324.57V317.421Z" fill="#323233"/>
<g opacity="0.15">
<path opacity="0.15" d="M177.781 305.978L205.393 290.017C206.657 289.255 206.657 288.104 205.393 287.372L167.051 265.215C166.343 264.855 165.56 264.668 164.766 264.668C163.973 264.668 163.19 264.855 162.482 265.215L134.87 281.176C133.606 281.938 133.606 283.089 134.87 283.82L173.204 305.978C173.913 306.339 174.697 306.527 175.492 306.527C176.288 306.527 177.072 306.339 177.781 305.978Z" fill="black"/>
</g>
<path d="M201.456 281.417L167.394 261.706C166.765 261.383 166.068 261.215 165.361 261.215C164.654 261.215 163.957 261.383 163.327 261.706L138.799 275.876C138.207 276.262 137.714 276.783 137.361 277.397C137.007 278.01 136.804 278.698 136.766 279.405V280.213C136.804 280.919 137.007 281.606 137.361 282.218C137.714 282.83 138.207 283.349 138.799 283.734L172.861 303.422C173.492 303.741 174.188 303.908 174.895 303.908C175.601 303.908 176.298 303.741 176.928 303.422L201.456 289.245C202.048 288.86 202.541 288.34 202.895 287.728C203.248 287.116 203.452 286.429 203.489 285.724V284.908C203.447 284.207 203.241 283.526 202.888 282.92C202.535 282.314 202.044 281.799 201.456 281.417Z" fill="#8CC83C"/>
<g opacity="0.25">
<path opacity="0.25" d="M201.456 281.417L167.394 261.706C166.765 261.383 166.068 261.215 165.361 261.215C164.654 261.215 163.957 261.383 163.327 261.706L138.799 275.876C138.207 276.262 137.714 276.783 137.361 277.397C137.007 278.01 136.804 278.698 136.766 279.405V280.213C136.804 280.919 137.007 281.606 137.361 282.218C137.714 282.83 138.207 283.349 138.799 283.734L172.861 303.422C173.492 303.741 174.188 303.908 174.895 303.908C175.601 303.908 176.298 303.741 176.928 303.422L201.456 289.245C202.048 288.86 202.541 288.34 202.895 287.728C203.248 287.116 203.452 286.429 203.489 285.724V284.908C203.447 284.207 203.241 283.526 202.888 282.92C202.535 282.314 202.044 281.799 201.456 281.417Z" fill="black"/>
</g>
<path d="M176.928 297.942L201.456 283.765C202.584 283.117 202.584 282.065 201.456 281.417L167.394 261.706C166.765 261.383 166.068 261.215 165.361 261.215C164.654 261.215 163.957 261.383 163.328 261.706L138.8 275.876C137.673 276.531 137.673 277.583 138.8 278.231L172.862 297.911C173.49 298.235 174.185 298.407 174.892 298.412C175.598 298.418 176.296 298.256 176.928 297.942Z" fill="#8CC83C"/>
<path d="M165.436 264.992C165.601 265.049 165.744 265.156 165.845 265.298C165.947 265.44 166.001 265.61 166.001 265.785C166.001 265.959 165.947 266.13 165.845 266.272C165.744 266.414 165.601 266.521 165.436 266.578C165.012 266.796 164.542 266.909 164.065 266.909C163.589 266.909 163.119 266.796 162.695 266.578C162.53 266.521 162.387 266.414 162.286 266.272C162.184 266.13 162.13 265.959 162.13 265.785C162.13 265.61 162.184 265.44 162.286 265.298C162.387 265.156 162.53 265.049 162.695 264.992C163.12 264.778 163.589 264.666 164.065 264.666C164.542 264.666 165.011 264.778 165.436 264.992Z" fill="#37474F"/>
<path d="M170.745 268.064C170.91 268.121 171.053 268.228 171.154 268.37C171.255 268.512 171.31 268.683 171.31 268.857C171.31 269.032 171.255 269.202 171.154 269.344C171.053 269.486 170.91 269.593 170.745 269.65C170.32 269.864 169.85 269.976 169.374 269.976C168.898 269.976 168.429 269.864 168.003 269.65C167.838 269.593 167.695 269.486 167.594 269.344C167.493 269.202 167.439 269.032 167.439 268.857C167.439 268.683 167.493 268.512 167.594 268.37C167.695 268.228 167.838 268.121 168.003 268.064C168.429 267.85 168.898 267.738 169.374 267.738C169.85 267.738 170.32 267.85 170.745 268.064Z" fill="#FAFAFA"/>
<path d="M176.022 271.134C176.187 271.191 176.33 271.298 176.431 271.44C176.533 271.582 176.587 271.753 176.587 271.927C176.587 272.102 176.533 272.272 176.431 272.414C176.33 272.556 176.187 272.663 176.022 272.72C175.597 272.934 175.128 273.046 174.651 273.046C174.175 273.046 173.706 272.934 173.281 272.72C173.116 272.663 172.973 272.556 172.872 272.414C172.77 272.272 172.716 272.102 172.716 271.927C172.716 271.753 172.77 271.582 172.872 271.44C172.973 271.298 173.116 271.191 173.281 271.134C173.705 270.916 174.175 270.803 174.651 270.803C175.128 270.803 175.598 270.916 176.022 271.134Z" fill="#FAFAFA"/>
<path d="M181.352 274.199C181.517 274.256 181.66 274.363 181.761 274.505C181.863 274.647 181.917 274.817 181.917 274.992C181.917 275.166 181.863 275.337 181.761 275.479C181.66 275.621 181.517 275.728 181.352 275.785C180.928 276.003 180.458 276.116 179.981 276.116C179.505 276.116 179.035 276.003 178.611 275.785C178.446 275.728 178.303 275.621 178.202 275.479C178.1 275.337 178.046 275.166 178.046 274.992C178.046 274.817 178.1 274.647 178.202 274.505C178.303 274.363 178.446 274.256 178.611 274.199C179.036 273.985 179.505 273.873 179.981 273.873C180.458 273.873 180.927 273.985 181.352 274.199Z" fill="#FAFAFA"/>
<path d="M186.682 277.271C186.847 277.328 186.99 277.435 187.091 277.577C187.193 277.719 187.247 277.89 187.247 278.064C187.247 278.239 187.193 278.409 187.091 278.551C186.99 278.693 186.847 278.8 186.682 278.857C186.257 279.071 185.788 279.183 185.312 279.183C184.835 279.183 184.366 279.071 183.941 278.857C183.776 278.8 183.633 278.693 183.532 278.551C183.43 278.409 183.376 278.239 183.376 278.064C183.376 277.89 183.43 277.719 183.532 277.577C183.633 277.435 183.776 277.328 183.941 277.271C184.366 277.057 184.835 276.945 185.312 276.945C185.788 276.945 186.257 277.057 186.682 277.271Z" fill="#FAFAFA"/>
<path d="M200.269 292.957C200.526 292.956 200.776 292.87 200.979 292.713C201.183 292.556 201.33 292.336 201.396 292.088C201.463 291.839 201.446 291.575 201.348 291.337C201.251 291.099 201.077 290.899 200.855 290.77L197.154 288.628C197.021 288.551 196.873 288.501 196.72 288.481C196.568 288.461 196.412 288.471 196.263 288.511C196.115 288.551 195.975 288.62 195.853 288.714C195.731 288.808 195.628 288.925 195.551 289.058C195.474 289.192 195.424 289.34 195.404 289.493C195.384 289.646 195.394 289.801 195.434 289.95C195.474 290.099 195.543 290.239 195.637 290.361C195.731 290.483 195.848 290.586 195.981 290.663L199.682 292.805C199.861 292.906 200.063 292.959 200.269 292.957Z" fill="#263238"/>
<path d="M200.267 294.093C200.575 294.094 200.881 294.034 201.166 293.916C201.451 293.799 201.71 293.626 201.928 293.408C202.146 293.189 202.318 292.93 202.436 292.645C202.553 292.36 202.613 292.054 202.612 291.745V255.053C202.612 254.43 202.365 253.833 201.925 253.393C201.485 252.952 200.889 252.705 200.267 252.705C199.645 252.705 199.048 252.952 198.608 253.393C198.169 253.833 197.921 254.43 197.921 255.053V291.745C197.92 292.054 197.98 292.36 198.098 292.645C198.215 292.93 198.388 293.189 198.606 293.408C198.824 293.626 199.083 293.799 199.368 293.916C199.653 294.034 199.959 294.094 200.267 294.093Z" fill="#37474F"/>
<path opacity="0.15" d="M207.571 241.272L181.207 256.57C180.762 256.795 180.271 256.913 179.772 256.913C179.273 256.913 178.781 256.795 178.336 256.57L102.665 212.925C102.492 212.867 102.341 212.755 102.234 212.606C102.126 212.457 102.069 212.278 102.069 212.095C102.069 211.911 102.126 211.732 102.234 211.583C102.341 211.434 102.492 211.322 102.665 211.264L129.029 195.966C129.474 195.741 129.965 195.623 130.464 195.623C130.963 195.623 131.455 195.741 131.9 195.966L207.571 239.603C207.747 239.659 207.901 239.771 208.011 239.921C208.12 240.071 208.179 240.252 208.179 240.437C208.179 240.623 208.12 240.804 208.011 240.954C207.901 241.104 207.747 241.215 207.571 241.272Z" fill="black"/>
<path d="M105.75 208.984C105.768 208.81 105.831 208.643 105.934 208.501C106.037 208.359 106.176 208.247 106.336 208.176L129.943 194.548C130.378 194.326 130.86 194.211 131.348 194.211C131.836 194.211 132.318 194.326 132.753 194.548L204.723 236.203C204.883 236.275 205.021 236.389 205.123 236.532C205.224 236.675 205.286 236.843 205.302 237.018V239.495C205.286 239.67 205.225 239.837 205.123 239.979C205.021 240.121 204.883 240.233 204.723 240.303L181.116 253.932C180.68 254.153 180.197 254.269 179.708 254.269C179.218 254.269 178.735 254.153 178.299 253.932L106.329 212.338C106.168 212.267 106.03 212.155 105.926 212.013C105.823 211.871 105.76 211.705 105.742 211.53L105.75 208.984Z" fill="#263238"/>
<path d="M181.124 251.393L204.73 237.826C204.902 237.77 205.051 237.662 205.157 237.516C205.262 237.37 205.319 237.195 205.319 237.014C205.319 236.834 205.262 236.659 205.157 236.513C205.051 236.367 204.902 236.258 204.73 236.203L132.76 194.548C132.325 194.326 131.844 194.211 131.355 194.211C130.867 194.211 130.386 194.326 129.951 194.548L106.344 208.176C106.173 208.232 106.023 208.341 105.918 208.486C105.812 208.632 105.755 208.808 105.755 208.988C105.755 209.168 105.812 209.344 105.918 209.49C106.023 209.635 106.173 209.744 106.344 209.8L178.306 251.393C178.743 251.615 179.225 251.731 179.715 251.731C180.204 251.731 180.687 251.615 181.124 251.393Z" fill="#37474F"/>
<path d="M179.829 251.728V254.259C180.291 254.257 180.745 254.144 181.154 253.931L204.715 240.31C204.876 240.238 205.015 240.124 205.118 239.981C205.22 239.838 205.284 239.67 205.302 239.495V237.01C205.286 237.186 205.224 237.355 205.121 237.498C205.017 237.642 204.877 237.755 204.715 237.825L181.109 251.393C180.715 251.604 180.276 251.719 179.829 251.728Z" fill="#263238"/>
<path d="M131.497 196.697H131.443L129.113 198.046L132.281 199.875L134.687 198.519L131.527 196.689L131.497 196.697ZM127.842 198.808H127.796L125.458 200.157L127.948 201.598L130.332 200.249L127.849 198.808H127.842ZM135.921 199.25H135.868L133.538 200.6L136.02 202.033L138.434 200.729L135.952 199.296L135.921 199.25ZM124.186 200.92H124.133L121.803 202.254L125.824 204.578L128.238 203.222L124.217 200.897L124.186 200.92ZM131.588 200.973H131.535L129.205 202.322L131.177 203.465L133.591 202.109L131.619 200.965L131.588 200.973ZM139.668 201.415H139.614L137.277 202.764L139.767 204.205L142.181 202.848L139.698 201.415H139.668ZM134.825 202.84H134.764L132.433 204.19L134.413 205.333L136.82 203.976L134.847 202.833L134.825 202.84ZM120.539 203.031H120.485L118.148 204.388L121.315 206.217L123.729 204.86L120.569 203.031H120.539ZM143.384 203.58H143.338L141 204.929L158.972 215.318L161.386 213.961L143.414 203.572L143.384 203.58ZM129.441 203.969H129.387L127.057 205.318L129.029 206.461L131.443 205.104L129.471 203.961L129.441 203.969ZM138.03 204.731H137.977L135.662 206.065L137.634 207.208L140.048 205.851L138.076 204.708L138.03 204.731ZM116.861 205.165H116.807L114.469 206.514L116.449 207.658L118.909 206.286L116.937 205.15L116.861 205.165ZM124.94 205.615H124.887L122.549 206.964L124.529 208.107L126.943 206.743L124.963 205.607L124.94 205.615ZM132.677 205.859H132.616L130.278 207.208L132.258 208.351L134.672 206.994L132.7 205.851L132.677 205.859ZM141.267 206.621H141.214L138.876 207.962L140.856 209.106L143.277 207.719L141.305 206.583L141.267 206.621ZM120.089 207.055H120.036L117.706 208.405L119.671 209.51L122.085 208.153L120.112 207.017L120.089 207.055ZM128.169 207.505H128.116L125.785 208.854L127.758 209.998L130.172 208.641L128.199 207.498L128.169 207.505ZM135.913 207.749H135.86L133.522 209.098L135.495 210.234L137.947 208.847L135.974 207.711L135.913 207.749ZM112.421 207.749H112.375L110.038 209.098L112.528 210.531L114.957 209.113L112.474 207.68L112.421 207.749ZM144.496 208.511H144.442L142.112 209.86L144.084 210.996L146.498 209.639L144.526 208.504L144.496 208.511ZM123.326 208.946C123.309 208.939 123.29 208.939 123.272 208.946L120.935 210.295L122.915 211.431L125.329 210.074L123.356 208.938L123.326 208.946ZM131.405 209.395H131.352L129.014 210.745L130.994 211.888L133.408 210.531L131.436 209.388L131.405 209.395ZM139.142 209.639C139.125 209.633 139.106 209.633 139.089 209.639L136.751 210.988L138.731 212.124L141.145 210.767L139.173 209.632L139.142 209.639ZM147.732 210.402H147.679L145.341 211.751L147.321 212.886L149.735 211.53L147.763 210.394L147.732 210.402ZM117.576 210.767H117.523L115.185 212.117L117.165 213.26L119.579 211.903L117.607 210.76L117.576 210.767ZM126.562 210.828H126.501L124.171 212.178L126.143 213.321L128.565 211.956L126.585 210.821L126.562 210.828ZM134.634 211.278H134.581L132.251 212.627L134.223 213.771L136.637 212.414L134.665 211.27L134.634 211.278ZM142.379 211.522H142.318L139.988 212.871L141.967 214.007L144.381 212.65L142.402 211.514L142.379 211.522ZM150.968 212.284H150.915L148.577 213.633L150.55 214.777L152.964 213.412L150.991 212.277L150.968 212.284ZM120.805 212.65H120.752L118.422 213.999L120.394 215.143L122.831 213.687L120.859 212.543L120.805 212.65ZM129.791 212.719H129.738L127.407 214.068L129.38 215.211L131.794 213.847L129.821 212.711L129.791 212.719ZM137.871 213.161H137.817L135.51 214.449L137.482 215.592L139.896 214.235L137.924 213.092L137.871 213.161ZM145.607 213.412H145.562L143.232 214.761L145.204 215.905L147.633 214.449L145.661 213.313L145.607 213.412ZM154.197 214.175H154.144L151.814 215.524L153.786 216.667L156.223 215.211L154.251 214.068L154.197 214.175ZM124.042 214.54H123.988L121.658 215.889L123.63 217.033L126.044 215.676L124.072 214.533L124.042 214.54ZM133.027 214.609H132.974L130.636 215.958L132.616 217.101L135.03 215.745L133.058 214.601L133.027 214.609ZM162.62 214.815H162.566L160.228 216.164L162.741 217.498L165.155 216.133L162.665 214.7L162.62 214.815ZM141.107 215.051H141.054L138.716 216.4L140.696 217.543L143.102 216.187L141.13 215.043L141.107 215.051ZM148.836 215.303H148.791L146.453 216.652L148.433 217.795L150.892 216.324L148.92 215.181L148.836 215.303ZM157.426 216.065H157.373L155.043 217.414L157.022 218.557L159.436 217.2L157.457 216.057L157.426 216.065ZM127.27 216.431H127.225L124.887 217.772L126.867 218.915L129.273 217.559L127.301 216.423L127.27 216.431ZM136.256 216.499H136.203L133.873 217.848L135.845 218.992L138.282 217.498L136.309 216.354L136.256 216.499ZM144.336 216.941H144.282L141.952 218.29L143.925 219.426L146.323 217.94L144.351 216.804L144.336 216.941ZM166.359 217.002H166.305L163.975 218.351L166.458 219.784L168.894 218.26L166.412 216.827L166.359 217.002ZM152.073 217.193H152.019L149.689 218.542L151.661 219.685L154.075 218.329L152.103 217.185L152.073 217.193ZM160.662 217.955H160.609L158.279 219.304L160.251 220.447L162.665 219.091L160.693 217.947L160.662 217.955ZM139.493 218.39H139.47L137.132 219.739L139.112 220.882L141.526 219.525L139.553 218.382L139.493 218.39ZM147.572 218.832H147.519L145.181 220.181L147.161 221.316L149.59 219.784L147.618 218.649L147.572 218.832ZM155.309 219.083H155.256L152.918 220.432L154.898 221.576L157.312 220.219L155.34 219.076L155.309 219.083ZM131.916 219.136H131.855L129.517 220.486L131.497 221.629L133.911 220.272L131.938 219.129L131.916 219.136ZM170.105 219.19H170.052L167.714 220.539L170.204 221.972L172.618 220.615L170.158 219.022L170.105 219.19ZM163.891 219.822H163.838L161.5 221.172L163.48 222.315L165.894 220.958L163.922 219.815L163.891 219.822ZM142.721 220.257H142.668L140.338 221.606L142.31 222.749L144.724 221.393L142.752 220.257H142.721ZM150.801 220.707H150.748L148.417 222.056L150.39 223.199L152.804 221.835L150.831 220.699L150.801 220.707ZM158.538 220.951H158.507L156.17 222.3L158.142 223.443L160.556 222.086L158.584 220.943L158.538 220.951ZM135.144 221.004H135.091L132.761 222.353L134.733 223.496L137.185 221.98L135.213 220.836L135.144 221.004ZM173.844 221.347H173.791L171.461 222.696L174.651 224.358L177.065 223.001L173.897 221.172L173.844 221.347ZM167.128 221.69H167.074L164.744 223.031L170.973 226.637L173.41 225.12L167.181 221.522L167.128 221.69ZM145.958 222.124H145.904L143.567 223.481L145.547 224.617L147.961 223.26L145.988 222.124H145.958ZM154.037 222.574H153.984L151.646 223.923L153.626 225.066L156.04 223.71L154.068 222.566L154.037 222.574ZM161.774 222.818H161.721L159.383 224.175L161.363 225.31L163.777 223.954L161.805 222.818H161.774ZM138.381 222.871C138.364 222.865 138.345 222.865 138.327 222.871L135.99 224.213L137.97 225.356L140.384 223.999L138.411 222.864L138.381 222.871ZM149.187 223.992H149.133L146.803 225.341L148.783 226.477L151.197 225.12L149.217 223.984L149.187 223.992ZM178.954 224.297C178.937 224.29 178.918 224.29 178.901 224.297L176.563 225.646L178.543 226.781L180.957 225.425L178.984 224.289L178.954 224.297ZM157.266 224.441H157.213L154.883 225.791L156.855 226.934L159.269 225.417L157.297 224.274L157.266 224.441ZM165.003 224.685C164.988 224.679 164.972 224.679 164.957 224.685L162.62 226.034L164.424 227.071C164.485 227.104 164.536 227.152 164.573 227.211C164.609 227.27 164.629 227.337 164.63 227.406C164.628 227.477 164.608 227.547 164.57 227.607C164.533 227.667 164.48 227.717 164.417 227.749L161.371 229.518L163.655 230.859L169.747 227.391L165.049 224.678L165.003 224.685ZM141.61 224.739H141.564L139.226 226.088L141.198 227.224L143.612 225.867L141.64 224.731L141.61 224.739ZM152.415 225.699L150.085 227.048L152.035 228.169L154.449 226.804L152.476 225.669L152.415 225.699ZM182.175 226.004H182.114L179.784 227.353L181.756 228.496L184.17 227.132L182.198 225.996L182.175 226.004ZM160.495 226.141H160.442L158.104 227.49L160.084 228.634L162.498 227.277L160.525 226.134L160.495 226.141ZM146.247 227.254H146.194L143.856 228.603L145.836 229.746L148.25 228.39L146.278 227.246L146.247 227.254ZM155.644 227.566H155.598L153.261 228.916L155.241 230.059L157.655 228.695L155.675 227.559L155.644 227.566ZM185.411 227.871H185.358L183.02 229.22L185 230.364L187.445 229.007L185.472 227.871H185.411ZM178.52 228.115H178.466L176.136 229.464L178.109 230.608L180.523 229.243L178.55 228.108L178.52 228.115ZM149.476 229.121H149.423L147.085 230.455L149.057 231.591L151.471 230.234L149.499 229.099L149.476 229.121ZM158.881 229.434H158.827L156.497 230.783L160.03 232.818L162.444 231.461L158.941 229.434H158.881ZM189.341 230.128C189.324 230.121 189.305 230.121 189.287 230.128L186.95 231.477L192.158 234.487L194.572 233.123L189.371 230.12L189.341 230.128ZM168.019 230.47H167.965L165.635 231.82L167.607 232.963L170.021 231.606L168.049 230.463L168.019 230.47ZM152.788 230.989C152.771 230.982 152.752 230.982 152.735 230.989L150.397 232.338L152.377 233.474L154.791 232.117L152.819 230.981L152.788 230.989ZM185.746 232.246H185.693L183.355 233.596L185.335 234.739L187.749 233.375L185.777 232.239L185.746 232.246ZM171.278 232.338H171.225L168.887 233.687L170.867 234.83L173.25 233.504L171.278 232.361V232.338ZM164.424 232.582H164.371L162.041 233.931L164.013 235.074L166.427 233.718L164.455 232.574L164.424 232.582ZM156.048 232.864H156.002L153.664 234.213L155.637 235.356L158.05 233.992L156.078 232.856L156.048 232.864ZM195.821 233.87H195.768L193.438 235.219L195.41 236.362L197.824 235.029L195.852 233.885L195.821 233.87ZM188.968 234.114H188.907L186.577 235.463L188.549 236.606L190.963 235.242L188.968 234.114ZM174.499 234.205H174.446L172.116 235.554L174.088 236.698L176.502 235.341L174.529 234.198L174.499 234.205ZM182.068 234.358H182.015L179.685 235.707L181.657 236.843L184.071 235.486L182.099 234.35L182.068 234.358ZM167.6 234.449H167.546L165.209 235.798L167.189 236.942L169.603 235.585L167.63 234.442L167.6 234.449ZM159.931 235.143H159.878L157.54 236.492L159.52 237.635L161.934 236.279L159.962 235.135L159.931 235.143ZM199.058 235.737H199.004L193.019 239.198L194.999 240.341L201.091 236.873L199.111 235.73L199.058 235.737ZM192.204 235.981H192.151L189.821 237.33L191.793 238.474L194.207 237.117L192.234 235.974L192.204 235.981ZM185.35 236.225H185.297L182.959 237.574L184.939 238.718L187.353 237.361L185.381 236.218L185.35 236.225ZM170.882 236.317H170.829L168.498 237.666L170.471 238.809L172.885 237.452L170.912 236.309L170.882 236.317ZM178.451 236.461H178.406L176.068 237.811L178.04 238.954L180.454 237.59L178.482 236.454L178.451 236.461ZM163.221 237.01H163.076L160.739 238.359L162.711 239.503L165.125 238.146L163.153 237.003L163.221 237.01ZM188.511 238.077H188.457L186.127 239.426L188.1 240.57L190.491 239.236L188.518 238.093L188.511 238.077ZM181.657 238.321H181.604L179.266 239.67L181.246 240.814L183.637 239.472L181.665 238.336L181.657 238.321ZM174.766 238.565H174.712L172.382 239.914L174.354 241.058L176.768 239.693L174.796 238.558L174.766 238.565ZM166.389 238.862H166.336L163.998 240.212L165.978 241.355L168.407 240.021L166.435 238.878L166.389 238.862ZM191.747 239.945H191.694L185.701 243.405L187.681 244.548L193.773 241.08L191.8 239.937L191.747 239.945ZM184.856 240.189H184.81L182.472 241.538L184.444 242.681L186.858 241.324L184.886 240.181L184.856 240.189ZM178.002 240.433H177.949L175.618 241.782L177.591 242.925L180.005 241.568L178.032 240.425L178.002 240.433ZM169.397 241.667H169.344L168.331 242.239L170.303 243.382L171.392 242.795L169.427 241.66L169.397 241.667ZM181.231 242.3H181.185L178.847 243.649L180.827 244.792L183.233 243.436L181.261 242.292L181.231 242.3ZM172.626 243.535H172.572L171.56 244.114L173.54 245.25L174.621 244.663L172.656 243.527L172.626 243.535ZM184.399 244.175L182.068 245.524L184.041 246.667L186.455 245.311L184.482 244.167L184.399 244.175ZM175.794 245.41C175.776 245.403 175.757 245.403 175.74 245.41L174.727 245.981L176.7 247.125L177.789 246.538L175.824 245.402L175.794 245.41ZM179.068 247.285H179.007L177.994 247.856L179.974 249L181.056 248.413L179.091 247.277L179.068 247.285Z" fill="#A3B5FF"/>
<path opacity="0.15" d="M36.0801 229.07L40.2607 226.738C40.9861 226.344 41.7963 226.132 42.6215 226.122C43.4467 226.111 44.2621 226.301 44.9973 226.677L65.8092 238.697L70.0965 236.197C70.7495 235.862 71.4724 235.688 72.2059 235.688C72.9394 235.688 73.6624 235.862 74.3153 236.197L99.5897 250.9C100.755 251.578 100.755 252.668 99.5897 253.339L95.3709 255.785L125.45 273.141C126.768 273.903 126.768 275.153 125.45 275.915L121.262 278.331C120.522 278.707 119.704 278.903 118.875 278.903C118.045 278.903 117.227 278.707 116.488 278.331L86.408 260.945C85.7537 261.28 85.0295 261.454 84.2948 261.454C83.5601 261.454 82.8359 261.28 82.1816 260.945L57.0062 246.303C55.8716 245.648 55.8487 244.588 56.9149 243.91L36.1181 231.89C34.8007 231.135 34.7779 229.87 36.0801 229.07Z" fill="black"/>
<path d="M40.2831 208.793L30.0561 136.452C29.7744 134.417 30.7415 131.963 32.2188 130.964C33.1017 130.478 34.0932 130.223 35.1011 130.223C36.1089 130.223 37.1004 130.478 37.9834 130.964L125.648 181.613C126.584 182.235 127.385 183.04 128.004 183.979C128.623 184.918 129.046 185.972 129.25 187.078L139.469 259.419C139.759 261.454 138.792 263.908 137.307 264.907C136.424 265.393 135.432 265.648 134.424 265.648C133.417 265.648 132.425 265.393 131.542 264.907L43.8774 214.243C42.9446 213.621 42.1458 212.819 41.5284 211.883C40.911 210.947 40.4876 209.896 40.2831 208.793Z" fill="#263238"/>
<path d="M40.2832 208.793L30.0562 136.452C29.7745 134.417 30.7416 131.963 32.2189 130.964C33.1019 130.478 34.0933 130.223 35.1012 130.223C36.109 130.223 37.1005 130.478 37.9835 130.964L125.648 181.613C126.567 182.2 127.346 182.98 127.933 183.899L117.995 190.576L123.021 259.983L43.8242 214.251C42.9004 213.623 42.1113 212.817 41.5032 211.88C40.8951 210.943 40.4803 209.893 40.2832 208.793Z" fill="#455A64"/>
<path d="M134.139 263.023L123.912 190.682C123.706 189.576 123.281 188.522 122.663 187.582C122.044 186.642 121.244 185.836 120.31 185.21L33.7187 135.125C32.0129 134.142 31.3733 134.927 31.655 136.969L40.2981 208.792C40.5016 209.898 40.9253 210.952 41.5441 211.891C42.1629 212.83 42.9641 213.635 43.9 214.257L131.549 264.921C133.255 265.905 134.413 265.058 134.139 263.023Z" fill="#37474F"/>
<path d="M84.23 200.256C83.7579 196.91 81.3286 193 78.8004 191.536C76.2722 190.073 74.6045 191.597 75.0691 194.951C75.5336 198.305 77.9704 202.207 80.4986 203.671C83.0268 205.134 84.6945 203.61 84.23 200.256Z" fill="#696C7B"/>
<path d="M87.275 225.912L70.2782 216.026L73.1719 214.35L90.1611 224.243L87.275 225.912Z" fill="#455A64"/>
<path d="M62.3979 245.036L83.1184 256.995C83.5262 257.21 83.9828 257.315 84.4434 257.3C84.8363 257.29 85.2218 257.191 85.5705 257.01L94.7086 251.743H94.7542C95.1037 251.51 95.3929 251.196 95.5981 250.829C95.8033 250.462 95.9186 250.052 95.9346 249.632V249.144C95.9346 248.382 95.3939 248.031 94.7086 248.435L89.2029 251.606L87.9768 252.315L88.251 250.92L90.1852 224.288L87.2991 225.958L70.2947 216.049L61.446 242.932C61.3882 243.337 61.447 243.75 61.6157 244.123C61.7843 244.495 62.0556 244.812 62.3979 245.036Z" fill="#37474F"/>
<path d="M95.5303 248.291L88.4711 244.205L87.0395 253.717L95.5303 248.291Z" fill="black"/>
<path d="M87.2757 225.882L90.1618 224.213L88.2275 250.844C88.0676 251.607 88.5093 251.927 89.1794 251.53L94.6851 248.36C95.3705 247.956 95.9111 248.283 95.9111 249.069V249.556C95.8951 249.977 95.7798 250.387 95.5747 250.754C95.3695 251.121 95.0803 251.434 94.7308 251.668H94.6851L85.547 256.934C85.1984 257.116 84.8128 257.215 84.42 257.224L87.2757 225.882Z" fill="#263238"/>
<path d="M169.167 31.3667C169.603 31.0718 170.112 30.9017 170.638 30.8749C171.164 30.848 171.687 30.9653 172.152 31.2143C175.083 32.4719 177.863 36.9156 178.358 41.123C178.663 43.6306 178.084 45.4981 176.949 46.3289L174.017 48.5088C173.582 48.8004 173.076 48.9679 172.552 48.9935C172.029 49.019 171.509 48.9015 171.047 48.6536C168.116 47.396 165.336 42.9523 164.841 38.7449C164.544 36.2525 165.108 34.4003 166.227 33.5543L169.167 31.3667Z" fill="#8CC83C"/>
<path opacity="0.3" d="M169.167 31.3667C169.603 31.0718 170.112 30.9017 170.638 30.8749C171.164 30.848 171.687 30.9653 172.152 31.2143C175.083 32.4719 177.863 36.9156 178.358 41.123C178.663 43.6306 178.084 45.4981 176.949 46.3289L174.017 48.5088C173.582 48.8004 173.076 48.9679 172.552 48.9935C172.029 49.019 171.509 48.9015 171.047 48.6536C168.116 47.396 165.336 42.9523 164.841 38.7449C164.544 36.2525 165.108 34.4003 166.227 33.5543L169.167 31.3667Z" fill="black"/>
<path d="M162.741 16.8547C165.162 15.0712 168.384 14.7815 172.107 16.3745C178.474 19.1109 183.53 25.521 187.238 34.2712C188 36.0471 187.924 37.8307 187.101 38.4938C186.134 39.256 184.451 40.407 183.629 41.0701C182.586 41.9085 180.758 40.6432 179.821 38.4024C177.225 32.1904 173.965 28.0211 169.488 26.1003C168.041 25.4043 166.407 25.2034 164.835 25.5287C164.33 26.3157 163.945 27.1738 163.693 28.0744C163.611 28.413 163.421 28.7155 163.152 28.9357L159.657 31.5272C158.895 32.076 157.684 31.573 156.656 30.1629C155.583 28.6842 155.072 26.6567 155.461 25.3686C156.049 23.0509 157.371 20.9863 159.23 19.4843C159.794 19.027 162.154 17.2892 162.741 16.8547Z" fill="#8CC83C"/>
<path opacity="0.3" d="M162.741 16.8547C165.162 15.0712 168.384 14.7815 172.107 16.3745C178.474 19.1109 183.53 25.521 187.238 34.2712C188 36.0471 187.924 37.8307 187.101 38.4938C186.134 39.256 184.451 40.407 183.629 41.0701C182.586 41.9085 180.758 40.6432 179.821 38.4024C177.225 32.1904 173.965 28.0211 169.488 26.1003C168.041 25.4043 166.407 25.2034 164.835 25.5287C164.33 26.3157 163.945 27.1738 163.693 28.0744C163.611 28.413 163.421 28.7155 163.152 28.9357L159.657 31.5272C158.895 32.076 157.684 31.573 156.656 30.1629C155.583 28.6842 155.072 26.6567 155.461 25.3686C156.049 23.0509 157.371 20.9863 159.23 19.4843C159.794 19.027 162.154 17.2892 162.741 16.8547Z" fill="black"/>
<path d="M148.965 12.4638C150.024 9.56193 151.87 7.0125 154.295 5.10089L157.844 2.47127C161.728 -0.417494 166.913 -0.905307 172.899 1.70907C182.357 5.77164 190.002 13.752 196.049 26.5494C196.94 28.4321 196.985 30.4214 196.102 31.1227C195.097 31.9459 193.52 32.9672 192.637 33.6913C191.632 34.5069 189.903 33.3407 188.898 31.2065C183.994 20.7414 178.031 14.7123 170.295 11.3891C166.297 9.67414 162.74 9.62841 159.839 10.9623C158.656 12.3103 157.722 13.859 157.082 15.5355C156.981 15.8165 156.801 16.0625 156.565 16.2444L153.092 18.8283C152.331 19.3847 151.12 18.9121 150.092 17.4944C148.904 15.9242 148.455 13.7596 148.965 12.4638Z" fill="#8CC83C"/>
<path opacity="0.3" d="M148.965 12.4638C150.024 9.56193 151.87 7.0125 154.295 5.10089L157.844 2.47127C161.728 -0.417494 166.913 -0.905307 172.899 1.70907C182.357 5.77164 190.002 13.752 196.049 26.5494C196.94 28.4321 196.985 30.4214 196.102 31.1227C195.097 31.9459 193.52 32.9672 192.637 33.6913C191.632 34.5069 189.903 33.3407 188.898 31.2065C183.994 20.7414 178.031 14.7123 170.295 11.3891C166.297 9.67414 162.74 9.62841 159.839 10.9623C158.656 12.3103 157.722 13.859 157.082 15.5355C156.981 15.8165 156.801 16.0625 156.565 16.2444L153.092 18.8283C152.331 19.3847 151.12 18.9121 150.092 17.4944C148.904 15.9242 148.455 13.7596 148.965 12.4638Z" fill="black"/>
<path d="M164.826 38.7449C165.321 42.9675 168.101 47.4112 171.033 48.6536C173.964 49.896 175.929 47.5103 175.426 43.3181C174.924 39.126 172.144 34.6518 169.22 33.4094C166.296 32.167 164.324 34.5222 164.826 38.7449Z" fill="#8CC83C"/>
<path d="M168.627 18.958C174.993 21.6944 180.049 28.1045 183.758 36.8471C184.52 38.623 184.443 40.4142 183.621 41.0773C182.578 41.9158 180.75 40.6505 179.813 38.4096C177.217 32.1976 173.957 28.0283 169.48 26.1076C165.002 24.1868 161.522 26.1076 160.205 30.6808C159.725 32.3272 158.011 32.068 156.648 30.193C155.575 28.7143 155.064 26.6868 155.453 25.3987C157.334 18.9962 162.253 16.2217 168.627 18.958Z" fill="#8CC83C"/>
<path d="M169.418 4.26287C178.876 8.33306 186.522 16.3134 192.568 29.1032C193.459 30.9859 193.505 32.9829 192.622 33.6765C191.616 34.492 189.888 33.3259 188.883 31.1917C183.978 20.7266 178.016 14.6975 170.279 11.3743C162.542 8.05104 156.412 10.9627 153.587 18.1046C153.008 19.5604 151.386 19.2936 150.076 17.4796C148.919 15.8789 148.469 13.7142 148.98 12.4337C152.414 3.76743 159.93 0.192681 169.418 4.26287Z" fill="#8CC83C"/>
</svg>
