<svg width="404" height="490" viewBox="0 0 404 490" fill="none" xmlns="http://www.w3.org/2000/svg">
<path fill-rule="evenodd" clip-rule="evenodd" d="M113.301 0.00780527C112.298 -0.0564464 111.3 0.197815 110.451 0.73428C109.601 1.27075 108.942 2.06198 108.569 2.99499C108.196 3.92801 108.127 4.9551 108.372 5.92958C108.618 6.90407 109.165 7.77611 109.935 8.42119L125.827 20.6673C130.782 24.4066 137.046 17.115 132.091 13.2823L116.105 1.03611C115.298 0.412996 114.319 0.0539044 113.301 0.00780527ZM118.255 39.5508C117.251 39.8966 116.388 40.5616 115.798 41.4441C115.208 42.3265 114.923 43.3779 114.986 44.4378C115.05 45.4976 115.459 46.5074 116.15 47.313C116.842 48.1186 117.778 48.6756 118.816 48.8989C119.832 48.6088 120.725 47.9956 121.362 47.1523C121.998 46.3089 122.342 45.2813 122.342 44.2248C122.342 43.1684 121.998 42.1408 121.362 41.2974C120.725 40.454 119.832 39.8409 118.816 39.5508H118.255ZM89.6498 1.12959C88.6459 1.47544 87.7829 2.14041 87.1927 3.0229C86.6024 3.90539 86.3173 4.95685 86.3809 6.01665C86.4444 7.07644 86.8533 8.08628 87.5448 8.89186C88.2364 9.69743 89.1727 10.2544 90.2105 10.4778C91.2264 10.1876 92.12 9.57447 92.7561 8.73111C93.3924 7.88775 93.7365 6.86009 93.7365 5.80369C93.7365 4.74729 93.3924 3.71964 92.7561 2.87628C92.12 2.03292 91.2264 1.41975 90.2105 1.12959H89.6498ZM91.3324 29.9221C87.4996 26.8372 90.7715 21.6022 94.7912 21.6022C95.8878 21.6209 96.9442 22.0171 97.7826 22.724L110.59 33.007C115.451 36.8398 109.001 44.0378 104.139 40.2052L91.3324 29.9221ZM61.2311 325.98C60.3074 325.992 59.4161 326.322 58.7072 326.915C45.9376 336.086 33.7027 345.981 22.0622 356.549C17.762 360.474 23.1839 367.766 27.4841 363.841C39.1235 353.242 51.3584 343.317 64.1291 334.112C64.8572 333.521 65.3856 332.718 65.6431 331.816C65.9005 330.913 65.8745 329.953 65.5686 329.066C65.2626 328.179 64.6914 327.407 63.9324 326.855C63.1734 326.303 62.2631 325.998 61.3246 325.98H61.2311ZM25.8015 336.544H26.3623C27.602 336.482 28.8154 336.915 29.7359 337.747C30.6563 338.58 31.2081 339.744 31.2702 340.983C31.3322 342.223 30.8991 343.437 30.0664 344.358C29.2336 345.278 28.0693 345.829 26.8297 345.891C25.5901 346.028 24.3471 345.666 23.3741 344.886C22.4011 344.106 21.7778 342.971 21.6415 341.732C21.5051 340.492 21.8668 339.249 22.647 338.276C23.427 337.303 24.5617 336.68 25.8015 336.544ZM15.238 364.588C16.1525 364.626 17.0384 364.917 17.7974 365.43C18.5565 365.94 19.159 366.652 19.5381 367.486C19.9242 368.605 19.8796 369.829 19.413 370.918C18.9464 372.006 18.0912 372.883 17.0141 373.375C15.8974 373.808 14.6555 373.786 13.5547 373.314C12.4538 372.842 11.5816 371.958 11.1248 370.851C10.7161 369.732 10.7498 368.5 11.2188 367.406C11.6879 366.311 12.5571 365.437 13.6487 364.961C14.1393 364.835 14.654 364.835 15.1445 364.961L15.238 364.588ZM34.9627 364.588C35.7575 364.364 36.5985 364.364 37.3932 364.588C41.3195 364.588 44.3109 370.01 40.2911 372.627C38.7362 373.656 37.2947 374.847 35.991 376.18C35.0207 376.889 33.8104 377.188 32.6212 377.013C31.4321 376.839 30.3593 376.203 29.6342 375.245C28.9375 374.278 28.6366 373.081 28.793 371.9C28.9494 370.718 29.5513 369.64 30.4755 368.888C31.8331 367.605 33.3036 366.447 34.8692 365.429L34.9627 364.588ZM99.3719 17.4889C95.5391 14.404 98.811 9.35601 102.831 9.35601C103.92 9.40911 104.966 9.8013 105.822 10.4778C122.836 24.2196 140.223 37.4006 158.172 50.3012C159.205 49.3837 160.372 48.6273 161.631 48.0576L135.923 29.3612C130.875 25.7154 137.419 18.5173 142.373 22.1631L196.874 61.706L202.856 66.0997L209.12 70.6802L374.583 194.544C383.722 201.445 391.134 210.374 396.239 220.625C401.343 230.877 404 242.172 404 253.624C404 265.076 401.343 276.372 396.239 286.624C391.134 296.876 383.722 305.803 374.583 312.705L155.461 478.075C145.699 485.481 133.781 489.487 121.527 489.479C108.613 489.404 96.113 484.918 86.0974 476.766L83.1994 474.43C76.5195 469.128 71.1362 462.373 67.459 454.679C63.782 446.984 61.9077 438.553 61.979 430.026C62.0183 421.42 64.037 412.939 67.8789 405.24C71.7206 397.541 77.2826 390.827 84.1342 385.621L239.595 267.74C241.982 265.955 243.924 263.643 245.269 260.984C246.615 258.324 247.329 255.39 247.354 252.409C247.354 249.361 246.644 246.357 245.281 243.63C243.918 240.904 241.94 238.533 239.501 236.704L68.3358 107.886C64.9171 105.344 60.7704 103.971 56.5103 103.971C52.2502 103.971 48.1035 105.344 44.6848 107.886C42.2304 109.699 40.2395 112.067 38.8748 114.797C37.5101 117.526 36.8102 120.54 36.8323 123.591C36.803 126.657 37.499 129.687 38.8637 132.432C40.2284 135.178 42.2231 137.562 44.6848 139.39L134.334 206.977C141.3 212.202 146.955 218.976 150.848 226.765C154.742 234.553 156.769 243.141 156.769 251.849C156.858 260.571 154.908 269.195 151.079 277.034C147.249 284.872 141.643 291.709 134.708 297.001L125.36 304.105C125.36 304.105 64.0356 352.715 49.8263 364.588C45.3392 368.233 39.9172 360.942 44.4044 357.297C56.3701 347.388 68.0553 337.353 79.4602 327.195C78.2451 326.636 77.1127 325.912 76.0948 325.045L73.2903 327.102C72.3192 327.647 71.1827 327.82 70.0933 327.588C69.004 327.355 68.0366 326.735 67.3721 325.841C66.7074 324.947 66.3913 323.842 66.4827 322.732C66.574 321.622 67.0666 320.583 67.8684 319.811L70.7663 317.847C70.1629 316.353 69.7849 314.777 69.6446 313.172C59.2681 320.371 48.985 328.13 38.9825 336.544C34.4018 340.189 28.9799 332.992 33.5604 329.345C40.1042 324.016 112.272 268.115 112.272 268.115C114.699 266.281 116.664 263.907 118.011 261.181C119.357 258.454 120.05 255.45 120.031 252.409C120.054 249.305 119.356 246.237 117.993 243.448C116.631 240.658 114.641 238.222 112.179 236.331L22.5296 168.743C15.5083 163.5 9.81313 156.684 5.90073 148.843C1.98834 141.003 -0.0324448 132.354 0.000393916 123.591C-0.0178387 114.844 2.00996 106.214 5.92178 98.3903C9.83359 90.5667 15.521 83.7664 22.5296 78.5327C32.3254 71.2049 44.2302 67.2447 56.4635 67.2447C68.697 67.2447 80.6017 71.2049 90.3975 78.5327L261.751 206.79C268.776 212.014 274.481 218.809 278.41 226.634C282.338 234.459 284.38 243.094 284.373 251.849C284.409 260.635 282.381 269.307 278.452 277.166C274.523 285.025 268.802 291.851 261.751 297.094L106.57 414.881C104.213 416.653 102.29 418.936 100.946 421.559C99.6017 424.183 98.8717 427.078 98.811 430.026C98.7633 433.02 99.4044 435.984 100.685 438.691C101.965 441.399 103.851 443.774 106.196 445.637L109.094 447.974C112.562 450.65 116.819 452.101 121.2 452.101C125.58 452.101 129.837 450.65 133.306 447.974L352.428 283.352C357.045 279.899 360.787 275.41 363.352 270.247C365.917 265.083 367.234 259.39 367.198 253.624C367.176 247.935 365.831 242.33 363.267 237.251C360.703 232.173 356.993 227.761 352.428 224.365C352.428 224.365 130.875 58.808 127.79 56.0971C123.023 52.0773 129.473 44.8792 134.241 48.8989C139.85 53.6666 145.645 58.2471 151.442 62.6408C151.628 61.1044 152.004 59.5972 152.564 58.1536C134.521 45.0662 116.666 31.6047 99.3719 17.4889Z" fill="url(#paint0_linear_1118_306)"/>
<defs>
<linearGradient id="paint0_linear_1118_306" x1="4.39405" y1="344.209" x2="281.475" y2="115.552" gradientUnits="userSpaceOnUse">
<stop stop-color="#00869D"/>
<stop offset="0.13" stop-color="#098995"/>
<stop offset="0.35" stop-color="#219380"/>
<stop offset="0.63" stop-color="#49A15D"/>
<stop offset="0.94" stop-color="#7FB62D"/>
<stop offset="1" stop-color="#8ABA24"/>
</linearGradient>
</defs>
</svg>
