<svg width="800" height="539" viewBox="0 0 800 539" fill="none" xmlns="http://www.w3.org/2000/svg">
<path d="M779.356 220.878L779.036 242.816L757.975 242.887C757.975 242.887 763.32 225.713 760.926 222.122C758.532 218.531 779.356 220.878 779.356 220.878Z" fill="#9F616A"/>
<path d="M735.079 394.072L736.367 439.165L750.111 491.99C750.111 491.99 747.105 501.008 749.252 503.157C751.399 505.306 761.277 509.17 761.277 509.17L753.118 396.65L735.079 394.072Z" fill="#090814"/>
<path d="M764.916 502.935C764.916 502.935 769.816 513.717 762.956 514.697C756.096 515.677 724.403 518.289 726.363 512.737C728.323 507.185 752.173 501.956 752.173 501.956L764.916 502.935Z" fill="#090814"/>
<path d="M783.179 354.132C783.179 354.132 778.025 382.047 774.589 386.773C771.153 391.499 776.31 425.853 776.31 425.853C776.31 425.853 784.041 475.241 780.605 482.971C777.169 490.701 778.028 488.125 778.458 492.42C778.888 496.715 779.746 500.151 778.458 504.02C777.17 507.889 777.17 507.456 776.74 509.603C776.31 511.75 776.74 523.346 776.74 523.346C776.74 523.346 758.273 529.788 755.266 520.34C755.266 520.34 759.561 514.327 758.272 509.604C756.929 504.85 756.207 499.943 756.125 495.004V485.983L736.369 412.112L731.645 385.484C731.645 385.484 732.933 358.428 737.658 355.851C742.383 353.274 783.179 354.132 783.179 354.132Z" fill="#090814"/>
<path d="M775.449 521.193C775.449 521.193 781.891 535.365 772.872 536.654C763.853 537.943 722.193 541.378 724.772 534.077C727.351 526.776 758.7 519.905 758.7 519.905L775.449 521.193Z" fill="#090814"/>
<path d="M767.285 230.466C776.773 230.466 784.464 222.775 784.464 213.287C784.464 203.799 776.773 196.108 767.285 196.108C757.797 196.108 750.106 203.799 750.106 213.287C750.106 222.775 757.797 230.466 767.285 230.466Z" fill="#9F616A"/>
<path d="M747.963 254.926C747.963 254.926 762.994 235.6 774.591 243.759C786.188 251.918 790.481 271.246 790.481 271.246L787.904 325.361C787.904 325.361 781.462 333.092 785.327 338.245C789.192 343.398 791.34 342.11 788.333 345.976C785.326 349.842 781.891 352.848 783.179 354.136C784.467 355.424 781.891 356.283 781.891 356.283L736.366 357.571C736.366 357.571 737.654 355.853 733.789 350.699C729.924 345.545 734.648 338.673 733.789 336.099C732.93 333.525 732.071 336.528 731.642 330.516C731.213 324.504 747.963 254.926 747.963 254.926Z" fill="#218A02"/>
<path d="M752.258 365.727C752.258 365.727 751.399 376.463 744.958 378.181C742.542 378.825 740.73 377.597 739.409 375.81C738.175 374.098 737.484 372.055 737.424 369.945C737.364 367.836 737.938 365.757 739.072 363.977L740.663 361.431L752.258 365.727Z" fill="#9F616A"/>
<path d="M791.987 233.238C791.987 233.238 792.416 241.828 791.987 243.115C791.558 244.402 791.128 245.692 791.987 246.98C792.846 248.268 792.416 252.563 791.558 252.993C790.7 253.423 793.276 257.288 792.417 259.865C791.89 261.383 791.168 262.827 790.27 264.16C789.841 265.019 789.149 266.56 789.149 266.56C789.149 266.56 776.527 239.682 766.219 246.124C760.484 249.817 754.271 252.707 747.752 254.714C747.752 254.714 753.329 224.649 791.987 233.238Z" fill="#218A02"/>
<path d="M773.301 253.205C773.301 253.205 787.044 254.493 786.185 272.531C785.326 290.569 787.473 318.915 787.473 318.915C787.473 318.915 763.852 354.992 759.986 357.568C756.12 360.144 755.691 359.715 756.121 361.863C756.551 364.011 756.98 365.728 755.262 367.446C754.248 368.467 753.09 369.335 751.826 370.023C751.826 370.023 738.083 365.299 739.372 361.005C740.661 356.711 746.672 349.838 746.672 349.838C746.672 349.838 756.98 333.089 757.408 330.512C757.836 327.935 757.837 328.365 759.126 327.076C760.415 325.787 763.85 320.634 763.85 318.058V309.896L760.25 266.29C760.087 264.514 760.301 262.724 760.878 261.036C761.456 259.349 762.384 257.803 763.602 256.5C764.827 255.201 766.351 254.221 768.042 253.647C769.733 253.073 771.538 252.921 773.301 253.205Z" fill="#218A02"/>
<path opacity="0.1" d="M785.384 325.05L761.276 356.336C761.276 356.336 783.475 337.779 785.384 325.05Z" fill="black"/>
<path opacity="0.1" d="M762.246 290.412L762.474 319.959L748.474 340.965L759.93 317.416L762.246 290.412Z" fill="black"/>
<path d="M771.808 224.049C770.65 223.189 769.413 222.442 768.114 221.817C765.95 220.4 764.366 218.254 763.649 215.769C762.931 213.284 763.128 210.624 764.203 208.271C764.554 207.693 764.808 207.061 764.955 206.401C765.152 204.907 763.916 203.591 762.577 202.887C761.173 202.343 759.809 201.699 758.497 200.96C757.587 200.229 756.883 199.274 756.456 198.188C756.028 197.101 755.891 195.923 756.058 194.768C756.427 192.449 757.521 190.308 759.182 188.649L759.311 190.26C760.264 189.801 761.069 189.084 761.635 188.191C762.194 188.439 762.679 188.827 763.044 189.317C763.41 189.807 763.643 190.382 763.722 190.988C764.423 191.684 765.056 189.724 766.042 189.665C766.454 189.718 766.833 189.923 767.104 190.239C768.716 191.569 771.035 191.391 773.124 191.426C776.741 191.493 780.291 192.41 783.488 194.104C785.666 195.15 787.505 196.792 788.79 198.838C789.685 200.604 790.225 202.528 790.381 204.501C790.983 209.321 790.906 214.352 789.121 218.872C787.654 222.57 785.124 225.75 781.852 228.011C780.142 229.182 774.499 233.342 772.385 231.834C769.73 229.948 774.806 226.785 771.808 224.049Z" fill="#090814"/>
<path d="M624.428 324.033H108.928C104.77 324.029 100.783 322.375 97.8428 319.435C94.9024 316.495 93.2485 312.508 93.244 308.35V17.682H640.114V308.349C640.11 312.507 638.456 316.494 635.516 319.434C632.576 322.375 628.589 324.029 624.431 324.033H624.428Z" fill="#E6E6E6"/>
<path d="M618.16 311.706H115.194C112.875 311.654 110.671 310.684 109.065 309.01C107.46 307.335 106.584 305.092 106.629 302.773V48.31C106.584 45.9906 107.46 43.7479 109.065 42.0734C110.671 40.3989 112.875 39.4292 115.194 39.377H618.16C620.479 39.4292 622.683 40.3989 624.289 42.0734C625.894 43.7479 626.77 45.9906 626.725 48.31V302.773C626.77 305.092 625.894 307.335 624.289 309.01C622.683 310.684 620.479 311.654 618.16 311.706Z" fill="white"/>
<path d="M640.112 28.276H93.241V15.684C93.2373 11.5341 94.8798 7.55221 97.8084 4.61189C100.737 1.67158 104.712 0.012975 108.862 0H624.491C628.641 0.012975 632.616 1.67158 635.545 4.61189C638.473 7.55221 640.116 11.5341 640.112 15.684V28.276Z" fill="#218A02"/>
<path d="M110.132 18.375C112.38 18.375 114.203 16.5524 114.203 14.304C114.203 12.0557 112.38 10.233 110.132 10.233C107.884 10.233 106.061 12.0557 106.061 14.304C106.061 16.5524 107.884 18.375 110.132 18.375Z" fill="white"/>
<path d="M125.586 18.375C127.834 18.375 129.657 16.5524 129.657 14.304C129.657 12.0557 127.834 10.233 125.586 10.233C123.338 10.233 121.515 12.0557 121.515 14.304C121.515 16.5524 123.338 18.375 125.586 18.375Z" fill="white"/>
<path d="M141.04 18.375C143.288 18.375 145.111 16.5524 145.111 14.304C145.111 12.0557 143.288 10.233 141.04 10.233C138.792 10.233 136.969 12.0557 136.969 14.304C136.969 16.5524 138.792 18.375 141.04 18.375Z" fill="white"/>
<path d="M284 51.865H459C463.243 51.865 467.313 53.5507 470.314 56.5513C473.314 59.5519 475 63.6215 475 67.865V160.865C475 165.108 473.314 169.178 470.314 172.179C467.313 175.179 463.243 176.865 459 176.865H284C279.757 176.865 275.687 175.179 272.686 172.179C269.686 169.178 268 165.108 268 160.865V67.865C268 63.6215 269.686 59.5519 272.686 56.5513C275.687 53.5507 279.757 51.865 284 51.865Z" fill="#F2F2F2"/>
<path d="M506.009 75.745H726.997C728.654 75.745 730.243 76.4032 731.414 77.5747C732.586 78.7462 733.244 80.3352 733.244 81.992V133.53C733.244 135.187 732.586 136.776 731.414 137.947C730.243 139.119 728.654 139.777 726.997 139.777H506.009C504.352 139.777 502.763 139.119 501.592 137.947C500.42 136.776 499.762 135.187 499.762 133.53V81.992C499.762 80.3352 500.42 78.7462 501.592 77.5747C502.763 76.4032 504.352 75.745 506.009 75.745Z" fill="#090814"/>
<path d="M506.748 76.5262H726.258C727.889 76.5119 729.459 77.1459 730.623 78.2889C731.786 79.4319 732.448 80.9902 732.463 82.6212V132.902C732.448 134.533 731.786 136.092 730.623 137.235C729.459 138.378 727.889 139.012 726.258 138.997H506.748C505.117 139.012 503.547 138.378 502.383 137.235C501.22 136.092 500.558 134.533 500.543 132.902V82.6212C500.558 80.9902 501.22 79.4319 502.383 78.2889C503.547 77.1459 505.117 76.5119 506.748 76.5262Z" fill="#F2F2F2"/>
<path d="M538.806 90.761C542.164 90.761 545.447 91.7568 548.24 93.6226C551.032 95.4884 553.208 98.1403 554.493 101.243C555.779 104.346 556.115 107.76 555.46 111.054C554.805 114.347 553.187 117.373 550.813 119.748C548.438 122.122 545.412 123.74 542.119 124.395C538.825 125.05 535.411 124.714 532.308 123.428C529.205 122.143 526.553 119.967 524.688 117.175C522.822 114.382 521.826 111.099 521.826 107.741C521.826 103.238 523.615 98.9187 526.799 95.7343C529.984 92.5499 534.303 90.761 538.806 90.761Z" fill="#218A02"/>
<path d="M578.024 97.008C577.652 97.008 577.284 97.0812 576.941 97.2234C576.598 97.3656 576.286 97.5741 576.023 97.8369C575.76 98.0997 575.552 98.4116 575.409 98.755C575.267 99.0983 575.194 99.4663 575.194 99.838C575.194 100.21 575.267 100.578 575.409 100.921C575.552 101.264 575.76 101.576 576.023 101.839C576.286 102.102 576.598 102.31 576.941 102.453C577.284 102.595 577.652 102.668 578.024 102.668H711.442C711.814 102.668 712.182 102.595 712.525 102.453C712.868 102.31 713.18 102.102 713.443 101.839C713.706 101.576 713.914 101.264 714.057 100.921C714.199 100.578 714.272 100.21 714.272 99.838C714.272 99.4663 714.199 99.0983 714.057 98.755C713.914 98.4116 713.706 98.0997 713.443 97.8369C713.18 97.5741 712.868 97.3656 712.525 97.2234C712.182 97.0812 711.814 97.008 711.442 97.008H578.024Z" fill="#218A02"/>
<path d="M578.024 113.989C577.273 113.989 576.554 114.287 576.023 114.818C575.492 115.349 575.194 116.068 575.194 116.819C575.194 117.57 575.492 118.289 576.023 118.82C576.554 119.351 577.273 119.649 578.024 119.649H635.434C636.185 119.649 636.904 119.351 637.435 118.82C637.966 118.289 638.264 117.57 638.264 116.819C638.264 116.068 637.966 115.349 637.435 114.818C636.904 114.287 636.185 113.989 635.434 113.989H578.024Z" fill="#218A02"/>
<path d="M277.212 187.411C279.065 187.411 280.877 187.961 282.418 188.99C283.959 190.02 285.16 191.484 285.87 193.196C286.579 194.908 286.765 196.792 286.403 198.61C286.041 200.428 285.149 202.098 283.838 203.408C282.528 204.719 280.858 205.611 279.04 205.973C277.222 206.335 275.338 206.149 273.626 205.44C271.914 204.73 270.45 203.529 269.42 201.988C268.391 200.447 267.841 198.635 267.841 196.782C267.841 194.297 268.828 191.913 270.586 190.156C272.343 188.398 274.727 187.411 277.212 187.411Z" fill="#F2F2F2"/>
<path d="M296.908 193.951C296.157 193.951 295.438 194.249 294.907 194.78C294.376 195.311 294.078 196.03 294.078 196.781C294.078 197.532 294.376 198.251 294.907 198.782C295.438 199.313 296.157 199.611 296.908 199.611H354.318C355.069 199.611 355.788 199.313 356.319 198.782C356.85 198.251 357.148 197.532 357.148 196.781C357.148 196.03 356.85 195.311 356.319 194.78C355.788 194.249 355.069 193.951 354.318 193.951H296.908Z" fill="#F2F2F2"/>
<path d="M475 310.865H268V242.865C268 238.622 269.686 234.552 272.686 231.551C275.687 228.551 279.757 226.865 284 226.865H459C463.243 226.865 467.313 228.551 470.314 231.551C473.314 234.552 475 238.622 475 242.865V310.865Z" fill="#F2F2F2"/>
<path d="M6.247 163.203H227.235C228.892 163.203 230.481 163.861 231.652 165.033C232.824 166.204 233.482 167.793 233.482 169.45V220.988C233.482 222.645 232.824 224.234 231.652 225.405C230.481 226.577 228.892 227.235 227.235 227.235H6.247C4.59019 227.235 3.00124 226.577 1.8297 225.405C0.658164 224.234 0 222.645 0 220.988V169.45C0 167.793 0.658164 166.204 1.8297 165.033C3.00124 163.861 4.59019 163.203 6.247 163.203Z" fill="#090814"/>
<path d="M6.98601 163.984H226.496C228.127 163.97 229.697 164.604 230.861 165.747C232.024 166.89 232.686 168.448 232.701 170.079V220.36C232.686 221.991 232.024 223.55 230.861 224.693C229.697 225.836 228.127 226.47 226.496 226.455H6.98601C5.35498 226.47 3.78503 225.836 2.62141 224.693C1.45779 223.55 0.795792 221.991 0.781006 220.36V170.079C0.795792 168.448 1.45779 166.89 2.62141 165.747C3.78503 164.604 5.35498 163.97 6.98601 163.984Z" fill="#F2F2F2"/>
<path d="M39.044 178.219C42.4023 178.219 45.6852 179.215 48.4776 181.081C51.2699 182.946 53.4463 185.598 54.7315 188.701C56.0166 191.804 56.3529 195.218 55.6977 198.512C55.0426 201.805 53.4254 204.831 51.0507 207.206C48.676 209.58 45.6504 211.198 42.3566 211.853C39.0628 212.508 35.6487 212.172 32.546 210.886C29.4433 209.601 26.7914 207.425 24.9256 204.633C23.0599 201.84 22.064 198.557 22.064 195.199C22.064 190.696 23.853 186.377 27.0373 183.192C30.2217 180.008 34.5406 178.219 39.044 178.219Z" fill="#218A02"/>
<path d="M78.262 184.466C77.8903 184.466 77.5224 184.539 77.179 184.681C76.8357 184.824 76.5237 185.032 76.2609 185.295C75.9981 185.558 75.7896 185.87 75.6474 186.213C75.5052 186.556 75.432 186.924 75.432 187.296C75.432 187.668 75.5052 188.036 75.6474 188.379C75.7896 188.722 75.9981 189.034 76.2609 189.297C76.5237 189.56 76.8357 189.768 77.179 189.911C77.5224 190.053 77.8903 190.126 78.262 190.126H211.68C212.052 190.126 212.42 190.053 212.763 189.911C213.106 189.768 213.418 189.56 213.681 189.297C213.944 189.034 214.152 188.722 214.295 188.379C214.437 188.036 214.51 187.668 214.51 187.296C214.51 186.924 214.437 186.556 214.295 186.213C214.152 185.87 213.944 185.558 213.681 185.295C213.418 185.032 213.106 184.824 212.763 184.681C212.42 184.539 212.052 184.466 211.68 184.466H78.262Z" fill="#218A02"/>
<path d="M78.262 201.447C77.5114 201.447 76.7916 201.745 76.2609 202.276C75.7302 202.807 75.432 203.526 75.432 204.277C75.432 205.028 75.7302 205.747 76.2609 206.278C76.7916 206.809 77.5114 207.107 78.262 207.107H135.672C136.423 207.107 137.142 206.809 137.673 206.278C138.204 205.747 138.502 205.028 138.502 204.277C138.502 203.526 138.204 202.807 137.673 202.276C137.142 201.745 136.423 201.447 135.672 201.447H78.262Z" fill="#218A02"/>
</svg>
