<svg width="64" height="64" viewBox="0 0 64 64" fill="none" xmlns="http://www.w3.org/2000/svg">
<mask id="path-1-outside-1_70_7" maskUnits="userSpaceOnUse" x="4" y="11" width="56" height="42" fill="black">
<rect fill="white" x="4" y="11" width="56" height="42"/>
<path d="M59.1161 47.0813C58.8249 47.9426 58.1895 48.3494 57.3357 48.6096C52.6918 50.031 47.9368 50.8962 43.1209 51.4126C36.8297 52.0817 30.4905 52.1794 24.1816 51.7046C18.2378 51.2647 12.3695 50.3427 6.66134 48.5647C5.42626 48.1803 5 47.6388 5 46.3443V46.0801C5 44.5121 5.3283 44.0789 6.87844 43.6456C6.87844 42.8531 6.84932 42.0433 6.87844 41.2389C6.96979 39.1703 6.97376 37.0886 7.22527 35.0385C7.60255 31.9753 8.70129 29.1221 10.2488 26.4525C12.2296 23.0072 15.0051 20.0828 18.345 17.9219C20.7064 16.3809 23.3169 15.2588 26.0613 14.6051C26.428 14.5179 26.5909 14.3621 26.6994 13.9803C27.0264 12.8747 27.7928 12.1125 28.9604 12.065C30.999 11.9804 33.0443 11.9804 35.0829 12.0531C36.3087 12.098 37.1679 12.9249 37.4485 14.1137C37.5266 14.444 37.7133 14.5232 37.978 14.5866C41.1883 15.3488 44.2128 16.7457 46.8725 18.6947C49.8908 20.882 52.3789 23.7172 54.1533 26.9914C56.3163 30.9542 57.3012 35.1943 57.235 39.6934C57.2152 41.0143 57.235 42.3273 57.235 43.7037C58.1829 43.7407 58.7495 44.281 59.1135 45.0801L59.1161 47.0813ZM43.109 18.3922C42.835 20.2956 42.5729 22.1185 42.3147 23.9401C41.9547 26.4604 41.6012 28.982 41.2358 31.5024C41.1498 32.0981 40.7381 32.4587 40.2589 32.4006C39.7294 32.3372 39.405 31.8722 39.4911 31.2752C39.9588 28.009 40.4297 24.7419 40.9036 21.4739C41.0902 20.1754 41.2676 18.8757 41.4582 17.5111L37.5226 16.2061C37.4975 16.4372 37.479 16.5403 37.4763 16.6446C37.3589 20.0218 37.2438 23.3963 37.1308 26.7682C36.9984 30.5447 36.8753 34.3199 36.7244 38.0951C36.6635 39.6511 35.6495 40.696 34.094 40.7779C32.8642 40.8413 31.6292 40.8136 30.3954 40.8043C28.513 40.7885 27.45 39.7674 27.3838 37.889C27.1358 30.97 26.894 24.0502 26.6584 17.1294C26.6478 16.856 26.6279 16.5839 26.6067 16.2047L22.7069 17.5151C22.693 17.583 22.6841 17.6519 22.6804 17.7212C23.3264 22.2229 23.9729 26.7246 24.6197 31.2263C24.7124 31.863 24.4079 32.3372 23.8639 32.4072C23.3688 32.4693 22.965 32.0915 22.875 31.4588C22.372 27.9301 21.8703 24.4015 21.3699 20.8729C21.2534 20.0645 21.1289 19.2574 20.982 18.2786C19.7257 19.1517 18.5224 19.8848 17.4356 20.7619C13.0451 24.302 10.2651 28.8372 9.09578 34.3674C8.45374 37.4056 8.62981 40.4873 8.62186 43.5584C8.62186 43.6047 8.6629 43.6496 8.69732 43.7209H50.4493C50.6772 43.7133 50.9053 43.7296 51.1298 43.7698C51.3255 43.7991 51.5032 43.9003 51.6281 44.0534C51.7529 44.2066 51.816 44.4008 51.8049 44.598C51.8186 44.7948 51.7571 44.9894 51.6329 45.1428C51.5086 45.2962 51.3308 45.397 51.1351 45.4249C50.8929 45.4668 50.6474 45.4862 50.4017 45.483C39.5864 45.483 18.296 45.483 7.48076 45.483H6.76063C6.77422 45.747 6.77422 46.0116 6.76063 46.2756C6.71562 46.66 6.86785 46.8304 7.24778 46.9268C8.03146 47.1236 8.79395 47.3997 9.57631 47.6044C15.994 49.282 22.5401 50.0336 29.1563 50.2159C35.2145 50.405 41.2772 50.0344 47.267 49.109C50.5367 48.6155 53.764 47.875 56.9213 46.8938C57.0815 46.8436 57.3184 46.7115 57.333 46.5886C57.3678 46.2225 57.3744 45.8542 57.3529 45.487H50.3434C50.2018 45.487 50.0602 45.4949 49.9198 45.487C49.3109 45.4408 48.9495 45.0907 48.9641 44.5795C48.9786 44.0683 49.3546 43.7341 49.9741 43.7302C51.6129 43.7196 53.2505 43.7302 54.8893 43.7302H55.5022C55.5022 42.8953 55.5234 42.1252 55.5022 41.3525C55.4413 39.5111 55.5022 37.6539 55.2573 35.8297C54.5279 30.4826 52.165 25.9228 48.2836 22.1515C46.7504 20.6548 45.0073 19.3885 43.109 18.3922ZM35.3874 26.3177H35.3966C35.522 22.5425 35.6468 18.7669 35.7713 14.9908C35.7991 14.1058 35.4311 13.7492 34.5309 13.7465C32.9106 13.7465 31.2907 13.7465 29.6713 13.7465C28.6454 13.7465 28.3157 14.082 28.3475 15.1176C28.4163 17.313 28.49 19.5084 28.5686 21.7038C28.7504 27.0755 28.9326 32.4473 29.1153 37.819C29.1458 38.7001 29.5124 39.0462 30.4047 39.0501C31.4253 39.0501 32.4473 39.0501 33.4679 39.0501C34.707 39.0501 34.9717 38.7859 35.0114 37.5337C35.1323 33.7999 35.2576 30.063 35.3874 26.323V26.3177Z"/>
<path d="M23.4627 35.5092C23.4362 34.8567 23.7102 34.4789 24.1802 34.4142C24.6859 34.3455 25.0817 34.6374 25.1783 35.1922C25.2789 35.7774 25.365 36.3665 25.4193 36.9583C25.4722 37.5289 25.1704 37.9226 24.6819 37.9926C24.2212 38.0586 23.7963 37.7139 23.7063 37.1723C23.6083 36.5871 23.5315 35.998 23.4627 35.5092Z"/>
<path d="M40.6568 35.5084C40.5813 36.021 40.5072 36.6643 40.3854 37.2983C40.3433 37.5076 40.2257 37.6942 40.0549 37.8228C39.8841 37.9513 39.672 38.0129 39.4588 37.9957C39.2371 37.9772 39.0319 37.8717 38.8881 37.7023C38.7444 37.5329 38.674 37.3134 38.6923 37.0922C38.7452 36.4131 38.8367 35.7374 38.9663 35.0686C39.0616 34.5825 39.4866 34.3408 39.9552 34.4187C40.4066 34.4927 40.6727 34.8572 40.6568 35.5084Z"/>
</mask>
<path d="M59.1161 47.0813C58.8249 47.9426 58.1895 48.3494 57.3357 48.6096C52.6918 50.031 47.9368 50.8962 43.1209 51.4126C36.8297 52.0817 30.4905 52.1794 24.1816 51.7046C18.2378 51.2647 12.3695 50.3427 6.66134 48.5647C5.42626 48.1803 5 47.6388 5 46.3443V46.0801C5 44.5121 5.3283 44.0789 6.87844 43.6456C6.87844 42.8531 6.84932 42.0433 6.87844 41.2389C6.96979 39.1703 6.97376 37.0886 7.22527 35.0385C7.60255 31.9753 8.70129 29.1221 10.2488 26.4525C12.2296 23.0072 15.0051 20.0828 18.345 17.9219C20.7064 16.3809 23.3169 15.2588 26.0613 14.6051C26.428 14.5179 26.5909 14.3621 26.6994 13.9803C27.0264 12.8747 27.7928 12.1125 28.9604 12.065C30.999 11.9804 33.0443 11.9804 35.0829 12.0531C36.3087 12.098 37.1679 12.9249 37.4485 14.1137C37.5266 14.444 37.7133 14.5232 37.978 14.5866C41.1883 15.3488 44.2128 16.7457 46.8725 18.6947C49.8908 20.882 52.3789 23.7172 54.1533 26.9914C56.3163 30.9542 57.3012 35.1943 57.235 39.6934C57.2152 41.0143 57.235 42.3273 57.235 43.7037C58.1829 43.7407 58.7495 44.281 59.1135 45.0801L59.1161 47.0813ZM43.109 18.3922C42.835 20.2956 42.5729 22.1185 42.3147 23.9401C41.9547 26.4604 41.6012 28.982 41.2358 31.5024C41.1498 32.0981 40.7381 32.4587 40.2589 32.4006C39.7294 32.3372 39.405 31.8722 39.4911 31.2752C39.9588 28.009 40.4297 24.7419 40.9036 21.4739C41.0902 20.1754 41.2676 18.8757 41.4582 17.5111L37.5226 16.2061C37.4975 16.4372 37.479 16.5403 37.4763 16.6446C37.3589 20.0218 37.2438 23.3963 37.1308 26.7682C36.9984 30.5447 36.8753 34.3199 36.7244 38.0951C36.6635 39.6511 35.6495 40.696 34.094 40.7779C32.8642 40.8413 31.6292 40.8136 30.3954 40.8043C28.513 40.7885 27.45 39.7674 27.3838 37.889C27.1358 30.97 26.894 24.0502 26.6584 17.1294C26.6478 16.856 26.6279 16.5839 26.6067 16.2047L22.7069 17.5151C22.693 17.583 22.6841 17.6519 22.6804 17.7212C23.3264 22.2229 23.9729 26.7246 24.6197 31.2263C24.7124 31.863 24.4079 32.3372 23.8639 32.4072C23.3688 32.4693 22.965 32.0915 22.875 31.4588C22.372 27.9301 21.8703 24.4015 21.3699 20.8729C21.2534 20.0645 21.1289 19.2574 20.982 18.2786C19.7257 19.1517 18.5224 19.8848 17.4356 20.7619C13.0451 24.302 10.2651 28.8372 9.09578 34.3674C8.45374 37.4056 8.62981 40.4873 8.62186 43.5584C8.62186 43.6047 8.6629 43.6496 8.69732 43.7209H50.4493C50.6772 43.7133 50.9053 43.7296 51.1298 43.7698C51.3255 43.7991 51.5032 43.9003 51.6281 44.0534C51.7529 44.2066 51.816 44.4008 51.8049 44.598C51.8186 44.7948 51.7571 44.9894 51.6329 45.1428C51.5086 45.2962 51.3308 45.397 51.1351 45.4249C50.8929 45.4668 50.6474 45.4862 50.4017 45.483C39.5864 45.483 18.296 45.483 7.48076 45.483H6.76063C6.77422 45.747 6.77422 46.0116 6.76063 46.2756C6.71562 46.66 6.86785 46.8304 7.24778 46.9268C8.03146 47.1236 8.79395 47.3997 9.57631 47.6044C15.994 49.282 22.5401 50.0336 29.1563 50.2159C35.2145 50.405 41.2772 50.0344 47.267 49.109C50.5367 48.6155 53.764 47.875 56.9213 46.8938C57.0815 46.8436 57.3184 46.7115 57.333 46.5886C57.3678 46.2225 57.3744 45.8542 57.3529 45.487H50.3434C50.2018 45.487 50.0602 45.4949 49.9198 45.487C49.3109 45.4408 48.9495 45.0907 48.9641 44.5795C48.9786 44.0683 49.3546 43.7341 49.9741 43.7302C51.6129 43.7196 53.2505 43.7302 54.8893 43.7302H55.5022C55.5022 42.8953 55.5234 42.1252 55.5022 41.3525C55.4413 39.5111 55.5022 37.6539 55.2573 35.8297C54.5279 30.4826 52.165 25.9228 48.2836 22.1515C46.7504 20.6548 45.0073 19.3885 43.109 18.3922ZM35.3874 26.3177H35.3966C35.522 22.5425 35.6468 18.7669 35.7713 14.9908C35.7991 14.1058 35.4311 13.7492 34.5309 13.7465C32.9106 13.7465 31.2907 13.7465 29.6713 13.7465C28.6454 13.7465 28.3157 14.082 28.3475 15.1176C28.4163 17.313 28.49 19.5084 28.5686 21.7038C28.7504 27.0755 28.9326 32.4473 29.1153 37.819C29.1458 38.7001 29.5124 39.0462 30.4047 39.0501C31.4253 39.0501 32.4473 39.0501 33.4679 39.0501C34.707 39.0501 34.9717 38.7859 35.0114 37.5337C35.1323 33.7999 35.2576 30.063 35.3874 26.323V26.3177Z" fill="#0190A1"/>
<path d="M23.4627 35.5092C23.4362 34.8567 23.7102 34.4789 24.1802 34.4142C24.6859 34.3455 25.0817 34.6374 25.1783 35.1922C25.2789 35.7774 25.365 36.3665 25.4193 36.9583C25.4722 37.5289 25.1704 37.9226 24.6819 37.9926C24.2212 38.0586 23.7963 37.7139 23.7063 37.1723C23.6083 36.5871 23.5315 35.998 23.4627 35.5092Z" fill="#0190A1"/>
<path d="M40.6568 35.5084C40.5813 36.021 40.5072 36.6643 40.3854 37.2983C40.3433 37.5076 40.2257 37.6942 40.0549 37.8228C39.8841 37.9513 39.672 38.0129 39.4588 37.9957C39.2371 37.9772 39.0319 37.8717 38.8881 37.7023C38.7444 37.5329 38.674 37.3134 38.6923 37.0922C38.7452 36.4131 38.8367 35.7374 38.9663 35.0686C39.0616 34.5825 39.4866 34.3408 39.9552 34.4187C40.4066 34.4927 40.6727 34.8572 40.6568 35.5084Z" fill="#0190A1"/>
<path d="M59.1161 47.0813C58.8249 47.9426 58.1895 48.3494 57.3357 48.6096C52.6918 50.031 47.9368 50.8962 43.1209 51.4126C36.8297 52.0817 30.4905 52.1794 24.1816 51.7046C18.2378 51.2647 12.3695 50.3427 6.66134 48.5647C5.42626 48.1803 5 47.6388 5 46.3443V46.0801C5 44.5121 5.3283 44.0789 6.87844 43.6456C6.87844 42.8531 6.84932 42.0433 6.87844 41.2389C6.96979 39.1703 6.97376 37.0886 7.22527 35.0385C7.60255 31.9753 8.70129 29.1221 10.2488 26.4525C12.2296 23.0072 15.0051 20.0828 18.345 17.9219C20.7064 16.3809 23.3169 15.2588 26.0613 14.6051C26.428 14.5179 26.5909 14.3621 26.6994 13.9803C27.0264 12.8747 27.7928 12.1125 28.9604 12.065C30.999 11.9804 33.0443 11.9804 35.0829 12.0531C36.3087 12.098 37.1679 12.9249 37.4485 14.1137C37.5266 14.444 37.7133 14.5232 37.978 14.5866C41.1883 15.3488 44.2128 16.7457 46.8725 18.6947C49.8908 20.882 52.3789 23.7172 54.1533 26.9914C56.3163 30.9542 57.3012 35.1943 57.235 39.6934C57.2152 41.0143 57.235 42.3273 57.235 43.7037C58.1829 43.7407 58.7495 44.281 59.1135 45.0801L59.1161 47.0813ZM43.109 18.3922C42.835 20.2956 42.5729 22.1185 42.3147 23.9401C41.9547 26.4604 41.6012 28.982 41.2358 31.5024C41.1498 32.0981 40.7381 32.4587 40.2589 32.4006C39.7294 32.3372 39.405 31.8722 39.4911 31.2752C39.9588 28.009 40.4297 24.7419 40.9036 21.4739C41.0902 20.1754 41.2676 18.8757 41.4582 17.5111L37.5226 16.2061C37.4975 16.4372 37.479 16.5403 37.4763 16.6446C37.3589 20.0218 37.2438 23.3963 37.1308 26.7682C36.9984 30.5447 36.8753 34.3199 36.7244 38.0951C36.6635 39.6511 35.6495 40.696 34.094 40.7779C32.8642 40.8413 31.6292 40.8136 30.3954 40.8043C28.513 40.7885 27.45 39.7674 27.3838 37.889C27.1358 30.97 26.894 24.0502 26.6584 17.1294C26.6478 16.856 26.6279 16.5839 26.6067 16.2047L22.7069 17.5151C22.693 17.583 22.6841 17.6519 22.6804 17.7212C23.3264 22.2229 23.9729 26.7246 24.6197 31.2263C24.7124 31.863 24.4079 32.3372 23.8639 32.4072C23.3688 32.4693 22.965 32.0915 22.875 31.4588C22.372 27.9301 21.8703 24.4015 21.3699 20.8729C21.2534 20.0645 21.1289 19.2574 20.982 18.2786C19.7257 19.1517 18.5224 19.8848 17.4356 20.7619C13.0451 24.302 10.2651 28.8372 9.09578 34.3674C8.45374 37.4056 8.62981 40.4873 8.62186 43.5584C8.62186 43.6047 8.6629 43.6496 8.69732 43.7209H50.4493C50.6772 43.7133 50.9053 43.7296 51.1298 43.7698C51.3255 43.7991 51.5032 43.9003 51.6281 44.0534C51.7529 44.2066 51.816 44.4008 51.8049 44.598C51.8186 44.7948 51.7571 44.9894 51.6329 45.1428C51.5086 45.2962 51.3308 45.397 51.1351 45.4249C50.8929 45.4668 50.6474 45.4862 50.4017 45.483C39.5864 45.483 18.296 45.483 7.48076 45.483H6.76063C6.77422 45.747 6.77422 46.0116 6.76063 46.2756C6.71562 46.66 6.86785 46.8304 7.24778 46.9268C8.03146 47.1236 8.79395 47.3997 9.57631 47.6044C15.994 49.282 22.5401 50.0336 29.1563 50.2159C35.2145 50.405 41.2772 50.0344 47.267 49.109C50.5367 48.6155 53.764 47.875 56.9213 46.8938C57.0815 46.8436 57.3184 46.7115 57.333 46.5886C57.3678 46.2225 57.3744 45.8542 57.3529 45.487H50.3434C50.2018 45.487 50.0602 45.4949 49.9198 45.487C49.3109 45.4408 48.9495 45.0907 48.9641 44.5795C48.9786 44.0683 49.3546 43.7341 49.9741 43.7302C51.6129 43.7196 53.2505 43.7302 54.8893 43.7302H55.5022C55.5022 42.8953 55.5234 42.1252 55.5022 41.3525C55.4413 39.5111 55.5022 37.6539 55.2573 35.8297C54.5279 30.4826 52.165 25.9228 48.2836 22.1515C46.7504 20.6548 45.0073 19.3885 43.109 18.3922ZM35.3874 26.3177H35.3966C35.522 22.5425 35.6468 18.7669 35.7713 14.9908C35.7991 14.1058 35.4311 13.7492 34.5309 13.7465C32.9106 13.7465 31.2907 13.7465 29.6713 13.7465C28.6454 13.7465 28.3157 14.082 28.3475 15.1176C28.4163 17.313 28.49 19.5084 28.5686 21.7038C28.7504 27.0755 28.9326 32.4473 29.1153 37.819C29.1458 38.7001 29.5124 39.0462 30.4047 39.0501C31.4253 39.0501 32.4473 39.0501 33.4679 39.0501C34.707 39.0501 34.9717 38.7859 35.0114 37.5337C35.1323 33.7999 35.2576 30.063 35.3874 26.323V26.3177Z" stroke="#0190A1" mask="url(#path-1-outside-1_70_7)"/>
<path d="M23.4627 35.5092C23.4362 34.8567 23.7102 34.4789 24.1802 34.4142C24.6859 34.3455 25.0817 34.6374 25.1783 35.1922C25.2789 35.7774 25.365 36.3665 25.4193 36.9583C25.4722 37.5289 25.1704 37.9226 24.6819 37.9926C24.2212 38.0586 23.7963 37.7139 23.7063 37.1723C23.6083 36.5871 23.5315 35.998 23.4627 35.5092Z" stroke="#0190A1" mask="url(#path-1-outside-1_70_7)"/>
<path d="M40.6568 35.5084C40.5813 36.021 40.5072 36.6643 40.3854 37.2983C40.3433 37.5076 40.2257 37.6942 40.0549 37.8228C39.8841 37.9513 39.672 38.0129 39.4588 37.9957C39.2371 37.9772 39.0319 37.8717 38.8881 37.7023C38.7444 37.5329 38.674 37.3134 38.6923 37.0922C38.7452 36.4131 38.8367 35.7374 38.9663 35.0686C39.0616 34.5825 39.4866 34.3408 39.9552 34.4187C40.4066 34.4927 40.6727 34.8572 40.6568 35.5084Z" stroke="#0190A1" mask="url(#path-1-outside-1_70_7)"/>
</svg>
