<svg width="64" height="64" viewBox="0 0 64 64" fill="none" xmlns="http://www.w3.org/2000/svg">
<path d="M12.7717 18.6382C12.7717 15.3976 15.4 12.7692 18.6381 12.7692H21.3079C22.8543 12.7692 24.341 12.1569 25.4411 11.0646L27.3067 9.19645C29.5925 6.90022 33.308 6.88984 35.6042 9.1757L35.6276 9.19645L37.4957 11.0646C38.5932 12.1569 40.0799 12.7692 41.6289 12.7692H44.2962C47.5368 12.7692 50.1652 15.3976 50.1652 18.6382V21.3029C50.1652 22.8545 50.7775 24.3386 51.8698 25.4387L53.7379 27.3068C56.0342 29.5927 56.0472 33.3056 53.7613 35.6044L53.7379 35.6277L51.8698 37.4959C50.7775 38.5908 50.1652 40.0801 50.1652 41.6265V44.2963C50.1652 47.537 47.5368 50.1627 44.2962 50.1627H41.6289C40.0799 50.1627 38.5932 50.7777 37.4957 51.87L35.6276 53.7355C33.3443 56.0343 29.6288 56.0447 27.33 53.7589C27.3222 53.7511 27.3144 53.7433 27.3067 53.7355L25.4411 51.87C24.341 50.7777 22.8543 50.1627 21.3079 50.1627H18.6381C15.4 50.1627 12.7717 47.537 12.7717 44.2963V41.6265C12.7717 40.0801 12.1567 38.5908 11.0644 37.4959L9.19888 35.6277C6.90005 33.3419 6.88968 29.6264 9.17553 27.3302L9.19888 27.3068L11.0644 25.4387C12.1567 24.3386 12.7717 22.8545 12.7717 21.3029V18.6382" stroke="#0190A1" stroke-width="3" stroke-linecap="round" stroke-linejoin="round"/>
<path d="M24.7995 38.1332L38.1358 24.7969" stroke="#0190A1" stroke-width="3" stroke-linecap="round" stroke-linejoin="round"/>
<path d="M38.1273 40.0867C37.6084 40.0867 37.1154 39.8791 36.7522 39.5159C36.5706 39.3342 36.4408 39.1007 36.337 38.8672C36.2333 38.6337 36.1814 38.4028 36.1814 38.1407C36.1814 37.8813 36.2333 37.6218 36.337 37.3883C36.4408 37.1548 36.5706 36.9472 36.7522 36.7656C37.4787 36.0391 38.776 36.0391 39.5025 36.7656C39.6841 36.9472 39.8398 37.1548 39.9435 37.3883C40.0214 37.6218 40.0733 37.8813 40.0733 38.1407C40.0733 38.4028 40.0214 38.6337 39.9435 38.8672C39.8398 39.1007 39.6841 39.3342 39.5025 39.5159C39.1392 39.8791 38.6462 40.0867 38.1273 40.0867" fill="#0190A1"/>
<path d="M24.7905 26.7517C24.531 26.7517 24.2975 26.6972 24.064 26.5934C23.8305 26.4896 23.5969 26.3625 23.4153 26.1809C23.2337 25.9733 23.104 25.7658 23.0002 25.5322C22.8964 25.2961 22.8445 25.0652 22.8445 24.8057C22.8445 24.5437 22.8964 24.2868 23.0002 24.0533C23.104 23.8198 23.2337 23.5863 23.4153 23.4306C24.1678 22.7015 25.4391 22.7015 26.1656 23.4306C26.5289 23.7913 26.7364 24.2868 26.7364 24.8057C26.7364 25.0652 26.7105 25.2961 26.6067 25.5322C26.5029 25.7658 26.3472 25.9733 26.1656 26.1809C25.984 26.3625 25.7764 26.4896 25.5429 26.5934C25.3094 26.6972 25.0499 26.7517 24.7905 26.7517" fill="#0190A1"/>
</svg>
