<svg width="64" height="64" viewBox="0 0 64 64" fill="none" xmlns="http://www.w3.org/2000/svg">
<path d="M34.788 14.0462C33.33 15.0113 31.9251 16.1304 30.6274 17.4281C28.7156 19.3399 28.7669 19.4437 27.0573 21.4005M34.788 14.0462C43.9224 8 55.1405 8 55.1405 8C55.1405 8 55.1405 19.218 49.0942 28.3524M34.788 14.0462L49.0942 28.3524M49.0942 28.3524C48.1292 29.8104 47.0101 31.2153 45.7124 32.513C43.8005 34.4249 43.6968 34.3735 41.74 36.0831M17.0884 34.0589C16.0952 35.4552 15.5425 36.2843 15.5425 36.2843L26.8562 47.598C26.8562 47.598 27.6852 47.0453 29.0815 46.0521M17.0884 34.0589L8 24.9706L23.0849 17.4281L27.0573 21.4005M17.0884 34.0589C19.0202 31.3431 22.6184 26.4814 27.0573 21.4005M29.0815 46.0521L38.1699 55.1405L45.7124 40.0555L41.74 36.0831M29.0815 46.0521C31.7973 44.1203 36.659 40.5221 41.74 36.0831M13.5 49.5C13.5 45.5 16.7809 43.6157 18.1144 44.9489C19.4478 46.2822 17.5 49.5 13.5 49.5Z" stroke="#0190A1" stroke-width="2.7" stroke-linecap="round" stroke-linejoin="round"/>
</svg>
