<svg width="161" height="13" viewBox="0 0 161 13" fill="none" xmlns="http://www.w3.org/2000/svg">
<g clip-path="url(#clip0_33357_6305)">
<path d="M5.20566 2.85303C5.78128 2.85303 6.33188 2.92811 6.88248 3.07827C7.358 3.20341 7.80849 3.40363 8.23395 3.62887C8.58433 3.82909 8.88466 4.07936 9.15996 4.35466L8.25898 5.35575C7.83351 5.00537 7.358 4.73007 6.85745 4.50482C6.33188 4.27958 5.75626 4.17947 5.20566 4.17947C4.52992 4.17947 3.87922 4.30461 3.27856 4.60493C2.72797 4.8552 2.27748 5.25564 1.92709 5.75618C1.60174 6.2317 1.42655 6.80733 1.42655 7.38295C1.42655 7.85847 1.52666 8.33398 1.7519 8.78447C1.95212 9.18491 2.22742 9.53529 2.5778 9.78556C2.92818 10.0609 3.32862 10.2611 3.77911 10.4112C4.2296 10.5364 4.70511 10.6115 5.18063 10.6115C5.73123 10.6115 6.28183 10.5364 6.83243 10.3612C7.28292 10.2361 7.68335 10.0108 8.03373 9.68545C8.30903 9.43518 8.48422 9.0848 8.50925 8.70939H5.18063V7.35792H9.91077C9.9358 7.45803 9.9358 7.55814 9.96083 7.68328C9.96083 7.78339 9.96083 7.90852 9.96083 8.00863C9.96083 8.45912 9.88575 8.90961 9.73558 9.31005C9.61045 9.68545 9.41023 10.0609 9.15996 10.3612C8.73449 10.8868 8.15887 11.3122 7.50816 11.5375C6.73232 11.8378 5.88139 11.9629 5.0555 11.9629C4.40479 11.9629 3.72905 11.8628 3.10337 11.6626C2.50272 11.4624 1.95212 11.1621 1.50163 10.7616C1.02612 10.3612 0.650707 9.88567 0.400435 9.33507C0.125136 8.73442 0 8.08371 0 7.40798C0 6.7823 0.125136 6.18165 0.400435 5.63105C0.675735 5.08045 1.05114 4.60493 1.50163 4.2045C2.00218 3.77903 2.55277 3.45368 3.15343 3.25346C3.80414 2.97816 4.5049 2.85303 5.20566 2.85303Z" fill="white"/>
<path d="M23.9009 5.68109C23.9009 6.08153 23.8258 6.45693 23.6506 6.80731C23.4754 7.1577 23.2502 7.45802 22.9498 7.73332C22.6495 8.00862 22.2991 8.20884 21.9237 8.33397L24.3764 11.8128H22.6745L20.372 8.50916H17.619V11.7877H16.2676V2.95312H21.0478C21.5483 2.95312 22.0238 3.07826 22.4493 3.30351C22.8748 3.52875 23.2502 3.87913 23.5004 4.27957C23.7757 4.68 23.9009 5.18055 23.9009 5.68109ZM20.7224 4.25454H17.619V7.20775H20.7975C21.0978 7.20775 21.3731 7.13267 21.6234 7.00753C21.8737 6.8824 22.0739 6.68218 22.2241 6.45693C22.3742 6.23169 22.4493 5.98142 22.4493 5.70612C22.4493 5.43082 22.3742 5.18055 22.199 4.9553C22.0238 4.73006 21.8236 4.55487 21.5483 4.45476C21.298 4.32962 21.0227 4.25454 20.7224 4.25454Z" fill="white"/>
<path d="M38.8673 2.92822V7.7835C38.8923 8.50929 38.6921 9.23508 38.3417 9.88579C37.9913 10.4864 37.4908 10.987 36.8651 11.3374C35.4886 12.0381 33.8368 12.0381 32.4603 11.3374C31.8346 11.012 31.3341 10.5115 30.9837 9.88579C30.6333 9.23508 30.4331 8.50929 30.4582 7.7835V2.92822H31.8346V7.70842C31.8096 8.73453 32.3602 9.66054 33.2362 10.1611C33.6616 10.4114 34.1622 10.5365 34.6627 10.5115C35.1883 10.5115 35.7139 10.3863 36.1644 10.1611C36.5898 9.93584 36.9652 9.58546 37.1905 9.16C37.4407 8.70951 37.5659 8.20896 37.5659 7.70842V2.92822H38.8673Z" fill="white"/>
<path d="M50.4798 2.95312C50.9553 2.95312 51.4558 3.07826 51.8813 3.30351C52.3068 3.52875 52.6571 3.87913 52.9074 4.27957C53.1577 4.70503 53.3078 5.18055 53.2828 5.65606C53.2828 6.15661 53.1577 6.65715 52.8824 7.08261C52.6071 7.50808 52.2317 7.85846 51.8062 8.10873C51.3557 8.359 50.8552 8.48414 50.3296 8.48414H47.1261V11.7877H45.7747V2.95312H50.4798ZM50.2045 7.18272C50.4798 7.18272 50.7801 7.10764 51.0304 6.9825C51.2806 6.85737 51.4809 6.65715 51.631 6.43191C51.7812 6.20666 51.8563 5.95639 51.8563 5.68109C51.8563 5.43082 51.7812 5.18055 51.631 4.98033C51.4809 4.75508 51.2806 4.60492 51.0304 4.47978C50.7801 4.35465 50.5048 4.27957 50.2045 4.27957H47.1011V7.18272H50.2045Z" fill="white"/>
<path d="M69.125 7.35793C69.125 7.98361 68.9999 8.58426 68.7496 9.15989C68.4994 9.71049 68.149 10.211 67.6985 10.6115C67.223 11.0369 66.6724 11.3623 66.0967 11.5875C65.446 11.8128 64.7703 11.9379 64.0695 11.9379C63.3688 11.9379 62.693 11.8378 62.0173 11.5875C61.4167 11.3623 60.8911 11.0369 60.4156 10.6115C59.9651 10.211 59.6147 9.71049 59.3644 9.15989C58.8639 8.00864 58.8639 6.73225 59.3644 5.581C59.6147 5.0304 59.9651 4.52986 60.4156 4.12942C60.8911 3.70396 61.4167 3.3786 62.0173 3.15336C62.668 2.90309 63.3688 2.80298 64.0695 2.80298C64.7703 2.80298 65.446 2.90309 66.0967 3.15336C66.6974 3.3786 67.223 3.70396 67.6985 4.12942C68.149 4.52986 68.4994 5.0304 68.7496 5.581C69.0249 6.1316 69.1501 6.75728 69.125 7.35793ZM67.7485 7.35793C67.7485 6.7823 67.5984 6.20668 67.273 5.70613C66.9477 5.20559 66.4972 4.80516 65.9716 4.55488C64.7703 3.97926 63.3688 3.97926 62.1675 4.55488C61.6419 4.80516 61.1914 5.20559 60.8661 5.70613C60.5657 6.20668 60.3905 6.7823 60.4156 7.35793C60.4156 7.93356 60.5657 8.50918 60.8661 9.00972C61.1914 9.51027 61.6419 9.9107 62.1675 10.161C63.3688 10.7366 64.7703 10.7366 65.9966 10.161C66.5222 9.9107 66.9727 9.51027 67.298 9.00972C67.5733 8.50918 67.7485 7.93356 67.7485 7.35793Z" fill="white"/>
<path d="M98.1067 11.963H100.359V3.55382H98.1067V11.963ZM106.09 3.67895C105.54 3.85414 105.039 4.15447 104.639 4.55491C104.263 4.95534 104.063 5.45588 104.063 6.00648C104.063 6.45697 104.163 6.88244 104.389 7.25784C104.614 7.5832 104.914 7.8585 105.264 8.05871C105.64 8.25893 106.015 8.40909 106.441 8.5092C106.841 8.60931 107.292 8.70942 107.767 8.80953C108.193 8.88461 108.568 8.95969 108.918 9.03477C109.194 9.08483 109.469 9.18494 109.719 9.31007C109.869 9.38516 109.87 9.48526 109.87 9.51029C109.87 9.63543 109.819 9.73554 109.719 9.78559C109.494 9.91073 109.269 9.98581 109.019 10.0359C108.243 10.186 107.417 10.136 106.666 9.83565C106.241 9.66045 105.865 9.41018 105.54 9.08483L105.29 8.83456L103.738 10.2611L103.988 10.5364C104.489 11.112 105.164 11.5375 105.89 11.7627C106.641 11.988 107.442 12.1131 108.243 12.1131C108.868 12.1131 109.519 12.013 110.12 11.8128C110.67 11.6376 111.171 11.3123 111.546 10.8868C111.922 10.4363 112.147 9.8857 112.122 9.28505C112.122 8.85958 111.997 8.45915 111.747 8.1338C111.496 7.83347 111.171 7.5832 110.821 7.40801C110.445 7.23282 110.045 7.08265 109.619 6.98254C109.219 6.88244 108.793 6.78233 108.368 6.70725C107.942 6.63216 107.567 6.55708 107.217 6.45697C106.941 6.40692 106.691 6.30681 106.466 6.15665C106.316 6.05654 106.316 5.95643 106.316 5.90637C106.316 5.80627 106.366 5.70616 106.466 5.6561C106.691 5.53097 106.916 5.45589 107.167 5.43086C107.442 5.3808 107.742 5.35578 108.043 5.35578C108.518 5.35578 108.969 5.45588 109.419 5.60605C109.87 5.75621 110.295 5.98146 110.67 6.25676L110.971 6.482L112.222 4.93031L111.972 4.68004C111.621 4.35469 111.221 4.07939 110.796 3.9042C110.345 3.72901 109.895 3.57884 109.419 3.50376C108.943 3.42868 108.493 3.37863 108.017 3.37863C107.317 3.40365 106.691 3.50376 106.09 3.67895ZM91.0991 3.95425C90.8739 4.10442 90.6486 4.27961 90.4484 4.4548V3.52879H88.1709V11.9379H90.4484V7.68331C90.4484 7.35795 90.5485 7.0326 90.7237 6.7573C90.9239 6.45697 91.1992 6.2067 91.4995 6.00648C92.0501 5.70616 92.7259 5.63108 93.3265 5.80627C93.5267 5.85632 93.727 5.9314 93.9021 6.00648L94.3526 6.25676L94.9283 3.95425L94.703 3.80409C94.4527 3.65393 94.1774 3.55382 93.9021 3.50376C93.5768 3.42868 93.2514 3.40365 92.9261 3.40365C92.2754 3.40365 91.6497 3.60387 91.0991 3.95425ZM118.354 9.68548C117.978 9.51029 117.653 9.23499 117.428 8.88461C117.202 8.55926 117.077 8.15882 117.102 7.75839C117.102 7.35795 117.202 6.98254 117.428 6.63216C117.653 6.28178 117.978 6.00648 118.354 5.83129C119.28 5.43086 120.306 5.43086 121.232 5.83129C121.607 6.00648 121.933 6.28178 122.158 6.60714C122.583 7.28287 122.583 8.15882 122.158 8.85958C121.933 9.20997 121.607 9.48526 121.232 9.66045C120.781 9.8857 120.281 9.98581 119.805 9.96078C119.28 9.98581 118.779 9.8857 118.354 9.68548ZM117.102 3.95425C116.402 4.30463 115.826 4.85523 115.426 5.50594C115 6.18167 114.8 6.95752 114.8 7.75839C114.775 8.55926 115 9.3351 115.375 10.0108C115.776 10.6615 116.327 11.2121 117.002 11.5625C117.753 11.9379 118.579 12.1381 119.43 12.1131C119.93 12.1131 120.456 12.038 120.932 11.8879C121.382 11.7377 121.782 11.5625 122.183 11.3123L122.383 11.1871V11.988H124.661V3.55382H122.383V4.20452C122.133 4.05436 121.908 3.9042 121.632 3.80409C120.982 3.52879 120.281 3.37863 119.555 3.40365C118.704 3.37863 117.878 3.57884 117.102 3.95425ZM131.893 3.9042C131.643 4.05436 131.418 4.20452 131.193 4.37972V3.55382H128.94V11.963H131.193V7.38298C131.218 7.08265 131.293 6.80735 131.468 6.58211C131.668 6.28178 131.943 6.03151 132.269 5.83129C132.619 5.63108 133.045 5.53097 133.445 5.53097C133.946 5.50594 134.421 5.6561 134.797 6.00648C135.122 6.33184 135.322 6.7573 135.297 7.23282V11.988H137.55V7.0326C137.55 6.40692 137.424 5.80627 137.149 5.25567C136.874 4.70507 136.448 4.22955 135.898 3.9042C135.247 3.55382 134.546 3.37863 133.796 3.40365C133.17 3.37863 132.494 3.55382 131.893 3.9042ZM144.332 5.90637C144.933 5.63108 145.583 5.50594 146.234 5.50594C146.634 5.50594 147.035 5.55599 147.41 5.70616C147.736 5.80627 148.036 5.98146 148.286 6.2067C148.411 6.33184 148.512 6.45697 148.587 6.63216H143.581C143.756 6.33184 144.007 6.05654 144.332 5.90637ZM143.731 3.9042C142.98 4.22955 142.33 4.75512 141.854 5.43086C141.354 6.13162 141.103 6.98254 141.128 7.83347C141.128 8.63434 141.354 9.41018 141.804 10.0609C142.28 10.7116 142.93 11.2372 143.656 11.5625C144.507 11.9379 145.433 12.1131 146.359 12.1131C146.885 12.1131 147.41 12.0631 147.936 11.9379C148.411 11.8378 148.887 11.6877 149.362 11.4874C149.713 11.3373 150.038 11.1621 150.338 10.9619L150.739 10.6866L149.638 8.93467L149.312 9.13488C148.962 9.36013 148.612 9.53532 148.236 9.68548C147.711 9.8857 147.16 9.98581 146.609 9.96078C145.834 9.98581 145.083 9.81062 144.407 9.43521C144.057 9.23499 143.756 8.93467 143.556 8.58429H150.914L150.939 7.45806C150.964 6.68222 150.714 5.9314 150.288 5.30572C149.863 4.68004 149.262 4.20452 148.587 3.87917C147.861 3.52879 147.06 3.3536 146.259 3.3536C145.358 3.37863 144.507 3.55382 143.731 3.9042ZM155.619 1.27634V3.57884H154.093V5.78124H155.619V9.03477C155.619 9.58537 155.744 10.136 156.02 10.6365C156.27 11.087 156.67 11.4624 157.121 11.7377C157.621 12.013 158.172 12.1381 158.723 12.1381C159.173 12.1381 159.624 12.0631 160.049 11.8879C160.324 11.7627 160.6 11.6126 160.825 11.4124L161.025 11.2121L160.249 9.31007L159.824 9.6104C159.674 9.71051 159.523 9.81062 159.348 9.8857C159.198 9.96078 159.048 9.98581 158.873 10.0108C158.572 10.0108 158.147 9.96078 157.972 9.73554C157.797 9.53532 157.722 9.28505 157.722 9.03477V5.78124H160.475V3.57884H157.722V1.27634H155.619ZM78.2101 9.68548C77.8347 9.51029 77.5093 9.23499 77.2591 8.88461C76.8086 8.20888 76.8086 7.33293 77.2591 6.65719C77.4843 6.30681 77.8347 6.03151 78.2101 5.88135C79.1111 5.48091 80.1622 5.48091 81.0632 5.88135C81.4386 6.05654 81.764 6.33184 81.9892 6.65719C82.2144 6.98254 82.3145 7.38298 82.3145 7.78342C82.3145 8.18385 82.2144 8.55926 81.9892 8.90964C81.764 9.26002 81.4386 9.53532 81.0632 9.71051C80.6127 9.91073 80.1372 10.0359 79.6617 10.0108C79.1361 9.98581 78.6606 9.8857 78.2101 9.68548ZM74.8564 0.425417V11.9379H77.1089V11.3623C77.3592 11.5125 77.6094 11.6376 77.8597 11.7377C78.4604 11.988 79.1111 12.1381 79.7868 12.1131C80.6377 12.1131 81.4636 11.9379 82.2144 11.5625C82.9152 11.2121 83.4908 10.6615 83.9163 10.0108C84.3418 9.3351 84.542 8.55926 84.542 7.75839C84.567 6.95752 84.3418 6.18167 83.9163 5.48091C83.4908 4.8302 82.9152 4.30463 82.2144 3.95425C81.4887 3.57884 80.6628 3.37863 79.8369 3.40365C79.1611 3.40365 78.4854 3.52879 77.8597 3.80409C77.6094 3.9042 77.3592 4.05436 77.1089 4.20452V0.425417H74.8564ZM98.1818 0.425417C97.9565 0.675689 97.8564 1.00104 97.8564 1.3264C97.8564 1.67678 97.9566 2.00213 98.2068 2.27743C98.4821 2.55273 98.8575 2.70289 99.258 2.65284C99.6584 2.67787 100.034 2.5277 100.309 2.22738C100.534 1.9771 100.659 1.65175 100.659 1.3264C100.659 0.976016 100.534 0.650662 100.309 0.375363C100.034 0.100063 99.6584 -0.0250726 99.283 -4.54274e-05C98.8575 -0.0250726 98.4571 0.125091 98.1818 0.425417Z" fill="white"/>
</g>
<defs>
<clipPath id="clip0_33357_6305">
<rect width="161" height="12.1132" fill="white"/>
</clipPath>
</defs>
</svg>
