<svg width="112" height="32" viewBox="0 0 112 32" fill="none" xmlns="http://www.w3.org/2000/svg">
<path d="M41.44 23V10.04H43.609V23H41.44ZM53.0279 23V18.32C53.0279 18.014 53.0069 17.675 52.9649 17.303C52.9229 16.931 52.8239 16.574 52.6679 16.232C52.5179 15.884 52.2899 15.599 51.9839 15.377C51.6839 15.155 51.2759 15.044 50.7599 15.044C50.4839 15.044 50.2109 15.089 49.9409 15.179C49.6709 15.269 49.4249 15.425 49.2029 15.647C48.9869 15.863 48.8129 16.163 48.6809 16.547C48.5489 16.925 48.4829 17.411 48.4829 18.005L47.1959 17.456C47.1959 16.628 47.3549 15.878 47.6729 15.206C47.9969 14.534 48.4709 14 49.0949 13.604C49.7189 13.202 50.4869 13.001 51.3989 13.001C52.1189 13.001 52.7129 13.121 53.1809 13.361C53.6489 13.601 54.0209 13.907 54.2969 14.279C54.5729 14.651 54.7769 15.047 54.9089 15.467C55.0409 15.887 55.1249 16.286 55.1609 16.664C55.2029 17.036 55.2239 17.339 55.2239 17.573V23H53.0279ZM46.2869 23V13.28H48.2219V16.295H48.4829V23H46.2869ZM63.2695 23C62.6275 23.12 61.9975 23.171 61.3795 23.153C60.7675 23.141 60.2185 23.03 59.7325 22.82C59.2465 22.604 58.8775 22.265 58.6255 21.803C58.4035 21.383 58.2865 20.954 58.2745 20.516C58.2625 20.078 58.2565 19.583 58.2565 19.031V10.58H60.4165V18.905C60.4165 19.295 60.4195 19.637 60.4255 19.931C60.4375 20.225 60.5005 20.465 60.6145 20.651C60.8305 21.011 61.1755 21.212 61.6495 21.254C62.1235 21.296 62.6635 21.272 63.2695 21.182V23ZM56.4925 14.981V13.28H63.2695V14.981H56.4925ZM69.2864 23.27C68.3024 23.27 67.4384 23.057 66.6944 22.631C65.9504 22.205 65.3684 21.614 64.9484 20.858C64.5344 20.102 64.3274 19.232 64.3274 18.248C64.3274 17.186 64.5314 16.265 64.9394 15.485C65.3474 14.699 65.9144 14.09 66.6404 13.658C67.3664 13.226 68.2064 13.01 69.1604 13.01C70.1684 13.01 71.0234 13.247 71.7254 13.721C72.4334 14.189 72.9584 14.852 73.3004 15.71C73.6424 16.568 73.7714 17.579 73.6874 18.743H71.5364V17.951C71.5304 16.895 71.3444 16.124 70.9784 15.638C70.6124 15.152 70.0364 14.909 69.2504 14.909C68.3624 14.909 67.7024 15.185 67.2704 15.737C66.8384 16.283 66.6224 17.084 66.6224 18.14C66.6224 19.124 66.8384 19.886 67.2704 20.426C67.7024 20.966 68.3324 21.236 69.1604 21.236C69.6944 21.236 70.1534 21.119 70.5374 20.885C70.9274 20.645 71.2274 20.3 71.4374 19.85L73.5794 20.498C73.2074 21.374 72.6314 22.055 71.8514 22.541C71.0774 23.027 70.2224 23.27 69.2864 23.27ZM65.9384 18.743V17.105H72.6254V18.743H65.9384ZM75.6955 23V13.28H77.6125V15.647L77.3785 15.341C77.4985 15.017 77.6575 14.723 77.8555 14.459C78.0595 14.189 78.3025 13.967 78.5845 13.793C78.8245 13.631 79.0885 13.505 79.3765 13.415C79.6705 13.319 79.9705 13.262 80.2765 13.244C80.5825 13.22 80.8795 13.232 81.1675 13.28V15.305C80.8795 15.221 80.5465 15.194 80.1685 15.224C79.7965 15.254 79.4605 15.359 79.1605 15.539C78.8605 15.701 78.6145 15.908 78.4225 16.16C78.2365 16.412 78.0985 16.7 78.0085 17.024C77.9185 17.342 77.8735 17.687 77.8735 18.059V23H75.6955ZM89.608 23V18.32C89.608 18.014 89.587 17.675 89.545 17.303C89.503 16.931 89.404 16.574 89.248 16.232C89.098 15.884 88.87 15.599 88.564 15.377C88.264 15.155 87.856 15.044 87.34 15.044C87.064 15.044 86.791 15.089 86.521 15.179C86.251 15.269 86.005 15.425 85.783 15.647C85.567 15.863 85.393 16.163 85.261 16.547C85.129 16.925 85.063 17.411 85.063 18.005L83.776 17.456C83.776 16.628 83.935 15.878 84.253 15.206C84.577 14.534 85.051 14 85.675 13.604C86.299 13.202 87.067 13.001 87.979 13.001C88.699 13.001 89.293 13.121 89.761 13.361C90.229 13.601 90.601 13.907 90.877 14.279C91.153 14.651 91.357 15.047 91.489 15.467C91.621 15.887 91.705 16.286 91.741 16.664C91.783 17.036 91.804 17.339 91.804 17.573V23H89.608ZM82.867 23V13.28H84.802V16.295H85.063V23H82.867ZM98.4134 23.27C97.4294 23.27 96.5654 23.057 95.8214 22.631C95.0774 22.205 94.4954 21.614 94.0754 20.858C93.6614 20.102 93.4544 19.232 93.4544 18.248C93.4544 17.186 93.6584 16.265 94.0664 15.485C94.4744 14.699 95.0414 14.09 95.7674 13.658C96.4934 13.226 97.3334 13.01 98.2874 13.01C99.2954 13.01 100.15 13.247 100.852 13.721C101.56 14.189 102.085 14.852 102.427 15.71C102.769 16.568 102.898 17.579 102.814 18.743H100.663V17.951C100.657 16.895 100.471 16.124 100.105 15.638C99.7394 15.152 99.1634 14.909 98.3774 14.909C97.4894 14.909 96.8294 15.185 96.3974 15.737C95.9654 16.283 95.7494 17.084 95.7494 18.14C95.7494 19.124 95.9654 19.886 96.3974 20.426C96.8294 20.966 97.4594 21.236 98.2874 21.236C98.8214 21.236 99.2804 21.119 99.6644 20.885C100.054 20.645 100.354 20.3 100.564 19.85L102.706 20.498C102.334 21.374 101.758 22.055 100.978 22.541C100.204 23.027 99.3494 23.27 98.4134 23.27ZM95.0654 18.743V17.105H101.752V18.743H95.0654ZM110.52 23C109.878 23.12 109.248 23.171 108.63 23.153C108.018 23.141 107.469 23.03 106.983 22.82C106.497 22.604 106.128 22.265 105.875 21.803C105.654 21.383 105.537 20.954 105.525 20.516C105.513 20.078 105.507 19.583 105.507 19.031V10.58H107.667V18.905C107.667 19.295 107.67 19.637 107.676 19.931C107.688 20.225 107.751 20.465 107.865 20.651C108.081 21.011 108.426 21.212 108.9 21.254C109.374 21.296 109.914 21.272 110.52 21.182V23ZM103.743 14.981V13.28H110.52V14.981H103.743Z" fill="#5BA109"/>
<circle cx="16" cy="16" r="16" fill="url(#paint0_linear_36565_34977)"/>
<path d="M17.0109 19.0804C17.0109 18.4533 16.4945 17.9348 15.8648 17.9348C15.2351 17.9348 14.7188 18.4533 14.7188 19.0804C14.7188 19.7074 15.2351 20.226 15.8648 20.226C16.4945 20.226 17.0109 19.7195 17.0109 19.0804Z" fill="white"/>
<path d="M25.5755 11.6761C25.5503 11.664 25.5251 11.6399 25.4999 11.6158C25.2103 11.3746 24.5932 10.8681 23.5982 10.3496C22.83 9.95168 21.9736 9.61404 21.0668 9.36081C19.3162 8.87846 17.5657 8.6614 15.7143 8.68552C11.3064 8.76993 8.58608 9.86727 7.08738 10.7717C6.50805 11.1214 6.10504 11.6881 5.9791 12.3152C5.85316 12.9422 6.01688 13.6055 6.41989 14.124L13.7497 23.4695C14.2156 24.0724 14.9461 24.41 15.7395 24.41C16.5204 24.41 17.2256 24.0724 17.7042 23.4936L23.3841 17.2713C23.7997 16.8854 23.9257 16.3066 23.7116 15.764C23.1826 14.4134 20.3112 12.9543 16.0544 12.9061C15.9914 12.9061 14.606 12.8578 12.9184 13.2799C12.3517 13.4246 11.9991 13.9672 12.1502 14.5099C12.3013 15.0525 12.8807 15.3781 13.46 15.2334C14.8327 14.8957 15.9788 14.9319 16.004 14.9319C19.0392 14.956 20.8401 15.8001 21.4698 16.2704L16.0544 22.2154L16.004 22.2757C15.9158 22.3842 15.8025 22.3962 15.7395 22.3962C15.6765 22.3962 15.5632 22.3842 15.475 22.2757L8.14528 12.9302C8.06972 12.8458 8.06972 12.7493 8.08231 12.689C8.09491 12.6408 8.1201 12.5443 8.23344 12.484C9.27875 11.857 11.6338 10.7958 15.7521 10.7234C17.3767 10.6993 18.9132 10.8923 20.4623 11.3143C21.2305 11.5314 21.9358 11.7967 22.5655 12.1343C23.3589 12.5443 23.8375 12.9422 24.0894 13.1472C24.2279 13.2678 24.3287 13.3522 24.4798 13.4246C25.0088 13.6778 25.6511 13.4849 25.9281 12.9905C26.18 12.5081 26.0163 11.9534 25.5755 11.6761Z" fill="white"/>
<defs>
<linearGradient id="paint0_linear_36565_34977" x1="0" y1="0" x2="32" y2="32" gradientUnits="userSpaceOnUse">
<stop offset="8.51495e-09" stop-color="#8ABA24"/>
<stop offset="0.479167" stop-color="#7DB52F"/>
<stop offset="0.828125" stop-color="#449F62"/>
<stop offset="1" stop-color="#00869D"/>
</linearGradient>
</defs>
</svg>
