<svg width="132" height="45" viewBox="0 0 132 45" fill="none" xmlns="http://www.w3.org/2000/svg">
<g clip-path="url(#clip0_34562_12458)">
<path fill-rule="evenodd" clip-rule="evenodd" d="M9.50177 -0.00113475C9.41767 -0.00652311 9.33402 0.0148001 9.26276 0.0597899C9.1915 0.10478 9.13628 0.171135 9.10498 0.249381C9.07368 0.327627 9.06791 0.413762 9.08848 0.495485C9.10906 0.577209 9.15493 0.650341 9.21955 0.70444L10.5523 1.73144C10.9678 2.04503 11.4931 1.43353 11.0776 1.11211L9.73697 0.0851022C9.66931 0.0328459 9.58718 0.00273128 9.50177 -0.00113475ZM9.91728 3.31507C9.8331 3.34407 9.76073 3.39984 9.71123 3.47385C9.66172 3.54785 9.63781 3.63603 9.64315 3.72491C9.64848 3.81379 9.68276 3.89848 9.74076 3.96604C9.79875 4.0336 9.87727 4.08031 9.96432 4.09904C10.0495 4.07471 10.1244 4.02328 10.1778 3.95256C10.2312 3.88183 10.26 3.79565 10.26 3.70705C10.26 3.61846 10.2312 3.53228 10.1778 3.46155C10.1244 3.39082 10.0495 3.3394 9.96432 3.31507H9.91728ZM7.51833 0.0929419C7.43414 0.121946 7.36177 0.177713 7.31227 0.251721C7.26277 0.32573 7.23886 0.413909 7.24419 0.502787C7.24952 0.591665 7.28381 0.676353 7.3418 0.743912C7.3998 0.81147 7.47832 0.858183 7.56536 0.876914C7.65055 0.85258 7.72549 0.801158 7.77884 0.730431C7.8322 0.659704 7.86106 0.573521 7.86106 0.484928C7.86106 0.396334 7.8322 0.310152 7.77884 0.239425C7.72549 0.168698 7.65055 0.117276 7.56536 0.0929419H7.51833ZM7.65944 2.50758C7.33801 2.24887 7.6124 1.80984 7.94951 1.80984C8.04147 1.81141 8.13007 1.84464 8.20038 1.90392L9.27442 2.76629C9.68209 3.08772 9.14115 3.69137 8.73348 3.36995L7.65944 2.50758ZM5.13505 27.336C5.05758 27.337 4.98283 27.3647 4.92338 27.4144C3.85248 28.1835 2.82642 29.0133 1.85021 29.8996C1.48958 30.2288 1.94428 30.8403 2.30491 30.5111C3.28103 29.6223 4.30709 28.7899 5.37808 28.018C5.43914 27.9684 5.48346 27.9011 5.50505 27.8254C5.52664 27.7497 5.52446 27.6692 5.4988 27.5948C5.47314 27.5204 5.42524 27.4557 5.36159 27.4094C5.29793 27.3631 5.22159 27.3375 5.14289 27.336H5.13505ZM2.1638 28.2219H2.21083C2.3148 28.2167 2.41656 28.253 2.49375 28.3228C2.57094 28.3927 2.61722 28.4903 2.62242 28.5942C2.62762 28.6982 2.5913 28.8 2.52147 28.8772C2.45163 28.9544 2.35399 29.0006 2.25003 29.0058C2.14607 29.0173 2.04183 28.9869 1.96023 28.9215C1.87863 28.8561 1.82636 28.7609 1.81493 28.657C1.80349 28.553 1.83382 28.4488 1.89925 28.3672C1.96467 28.2856 2.05983 28.2333 2.1638 28.2219ZM1.27791 30.5738C1.3546 30.577 1.4289 30.6014 1.49255 30.6444C1.55621 30.6872 1.60674 30.7469 1.63853 30.8168C1.67091 30.9107 1.66717 31.0133 1.62804 31.1046C1.58891 31.1959 1.51719 31.2694 1.42686 31.3107C1.33321 31.347 1.22906 31.3452 1.13674 31.3056C1.04442 31.266 0.971271 31.1919 0.93296 31.099C0.89869 31.0052 0.901512 30.9019 0.94085 30.8101C0.980188 30.7183 1.05308 30.645 1.14463 30.6051C1.18577 30.5945 1.22893 30.5945 1.27007 30.6051L1.27791 30.5738ZM2.93209 30.5738C2.99874 30.555 3.06927 30.555 3.13592 30.5738C3.46519 30.5738 3.71606 31.0285 3.37895 31.248C3.24855 31.3343 3.12766 31.4341 3.01833 31.5459C2.93695 31.6054 2.83545 31.6305 2.73572 31.6158C2.636 31.6012 2.54603 31.5479 2.48522 31.4675C2.4268 31.3864 2.40156 31.286 2.41468 31.187C2.42779 31.0879 2.47827 30.9975 2.55578 30.9344C2.66963 30.8268 2.79295 30.7297 2.92425 30.6443L2.93209 30.5738ZM8.33366 1.46489C8.01223 1.20618 8.28662 0.782837 8.62373 0.782837C8.71511 0.78729 8.80282 0.820181 8.8746 0.876914C10.3014 2.02935 11.7596 3.13475 13.2648 4.21664C13.3515 4.13969 13.4493 4.07626 13.5549 4.02848L11.399 2.46054C10.9756 2.15479 11.5244 1.55113 11.9399 1.85688L16.5105 5.17308L17.0122 5.54155L17.5375 5.92569L31.4138 16.3133C32.1802 16.8921 32.8018 17.6409 33.2299 18.5006C33.658 19.3603 33.8808 20.3076 33.8808 21.268C33.8808 22.2284 33.658 23.1757 33.2299 24.0355C32.8018 24.8952 32.1802 25.6439 31.4138 26.2227L13.0375 40.0912C12.2188 40.7123 11.2193 41.0482 10.1917 41.0476C9.10868 41.0413 8.06036 40.6651 7.22042 39.9814L6.97738 39.7855C6.41718 39.3409 5.96572 38.7744 5.65734 38.1291C5.34897 37.4838 5.19179 36.7767 5.19777 36.0616C5.20106 35.3399 5.37036 34.6287 5.69255 33.983C6.01473 33.3373 6.48118 32.7743 7.05578 32.3377L20.0932 22.4518C20.2934 22.3021 20.4563 22.1082 20.5691 21.8852C20.682 21.6621 20.7418 21.4161 20.7439 21.1661C20.7439 20.9105 20.6844 20.6585 20.5701 20.4298C20.4558 20.2012 20.2899 20.0024 20.0854 19.849L5.73087 9.0459C5.44417 8.83272 5.09641 8.7176 4.73914 8.7176C4.38188 8.7176 4.03412 8.83272 3.74742 9.0459C3.54158 9.19796 3.37462 9.39655 3.26017 9.62545C3.14572 9.85435 3.08703 10.1071 3.08888 10.363C3.08642 10.6201 3.14479 10.8742 3.25924 11.1044C3.37369 11.3347 3.54097 11.5346 3.74742 11.6879L11.2657 17.356C11.8499 17.7942 12.3241 18.3623 12.6506 19.0155C12.9772 19.6686 13.1472 20.3888 13.1472 21.1191C13.1546 21.8506 12.9911 22.5738 12.67 23.2312C12.3488 23.8885 11.8787 24.4619 11.2971 24.9057L10.5131 25.5015C10.5131 25.5015 5.37024 29.5781 4.1786 30.5738C3.8023 30.8795 3.34759 30.268 3.7239 29.9623C4.72739 29.1313 5.70735 28.2898 6.6638 27.4379C6.5619 27.391 6.46693 27.3303 6.38157 27.2576L6.14637 27.4301C6.06493 27.4758 5.96962 27.4903 5.87826 27.4708C5.78691 27.4513 5.70578 27.3993 5.65005 27.3243C5.59431 27.2494 5.5678 27.1567 5.57546 27.0636C5.58312 26.9705 5.62443 26.8834 5.69167 26.8186L5.9347 26.6539C5.8841 26.5286 5.8524 26.3965 5.84063 26.2619C4.97042 26.8656 4.10805 27.5163 3.2692 28.2219C2.88505 28.5276 2.43035 27.924 2.81449 27.6182C3.36327 27.1713 9.41554 22.4832 9.41554 22.4832C9.61902 22.3294 9.7838 22.1303 9.89676 21.9017C10.0097 21.673 10.0678 21.4211 10.0662 21.1661C10.0681 20.9058 10.0096 20.6485 9.89531 20.4146C9.78105 20.1806 9.61415 19.9763 9.4077 19.8177L1.88941 14.1496C1.30058 13.7099 0.822962 13.1383 0.494855 12.4807C0.166749 11.8232 -0.00272093 11.0979 3.3035e-05 10.363C-0.00149601 9.62942 0.168562 8.90567 0.49662 8.24955C0.824678 7.59344 1.30164 7.02314 1.88941 6.58423C2.71092 5.96969 3.70929 5.63758 4.73522 5.63758C5.76116 5.63758 6.75953 5.96969 7.58104 6.58423L21.9513 17.3403C22.5405 17.7784 23.0189 18.3483 23.3484 19.0045C23.6778 19.6607 23.8491 20.3849 23.8485 21.1191C23.8515 21.8559 23.6814 22.5832 23.3519 23.2423C23.0224 23.9014 22.5426 24.4738 21.9513 24.9135L8.93731 34.7915C8.73968 34.9401 8.57839 35.1316 8.46566 35.3516C8.35293 35.5716 8.29171 35.8144 8.28662 36.0616C8.28262 36.3127 8.33639 36.5613 8.44378 36.7883C8.55116 37.0154 8.70929 37.2146 8.90596 37.3708L9.14899 37.5668C9.43985 37.7912 9.79686 37.9129 10.1642 37.9129C10.5316 37.9129 10.8886 37.7912 11.1795 37.5668L29.5558 23.7611C29.943 23.4715 30.2568 23.095 30.4719 22.662C30.687 22.229 30.7975 21.7515 30.7945 21.268C30.7926 20.7909 30.6798 20.3208 30.4648 19.8949C30.2498 19.469 29.9386 19.099 29.5558 18.8142C29.5558 18.8142 10.9756 4.93005 10.7169 4.7027C10.3171 4.36559 10.858 3.76193 11.2579 4.09904C11.7283 4.49887 12.2143 4.88301 12.7004 5.25148C12.716 5.12263 12.7476 4.99623 12.7945 4.87517C11.2814 3.77761 9.78401 2.64869 8.33366 1.46489Z" fill="url(#paint0_linear_34562_12458)"/>
<path fill-rule="evenodd" clip-rule="evenodd" d="M86.2363 5.87891H91.3713V29.0061H86.2363V5.87891ZM114.695 36.6655L118.669 28.1359L111.88 13.5775H117.54L121.46 22.0679L125.435 13.5775H131.095L120.355 36.6655H114.695ZM101.618 8.4425V22.9381C101.622 24.6377 102.299 26.2664 103.501 27.4682C104.702 28.6699 106.331 29.3469 108.031 29.351C108.956 29.347 109.869 29.1432 110.708 28.7535C111.547 28.3638 112.292 27.7975 112.891 27.0932L108.972 23.8005C108.852 23.9336 108.706 24.04 108.542 24.1129C108.379 24.1858 108.202 24.2236 108.023 24.2239C107.683 24.2218 107.357 24.0857 107.116 23.845C106.875 23.6043 106.739 23.2785 106.737 22.9381V18.0305H111.394L109.301 13.5462H106.737V8.4425H101.618ZM67.9071 36.6655C66.0498 36.6684 64.2479 36.0328 62.8035 34.8653C61.359 33.6978 60.3598 32.0692 59.9733 30.2526H65.0691C65.2615 30.9391 65.6956 31.5328 66.2913 31.9244C66.887 32.3161 67.6042 32.4792 68.3107 32.3837C69.0172 32.2882 69.6654 31.9406 70.1358 31.4049C70.6062 30.8692 70.8671 30.1815 70.8705 29.4686V28.3083C69.6397 29.0069 68.2473 29.3705 66.8322 29.3627C65.417 29.3549 64.0287 28.976 62.8057 28.264C61.5828 27.5519 60.5679 26.5315 59.8626 25.3046C59.1573 24.0778 58.7861 22.6874 58.7861 21.2722C58.7861 19.857 59.1573 18.4666 59.8626 17.2398C60.5679 16.0129 61.5828 14.9925 62.8057 14.2804C64.0287 13.5684 65.417 13.1895 66.8322 13.1817C68.2473 13.1739 69.6397 13.5375 70.8705 14.236V13.5775H75.9976V28.5827C75.9914 30.7313 75.1325 32.7895 73.6095 34.3051C72.0866 35.8207 70.0243 36.6697 67.8757 36.6655H67.9071ZM70.8626 23.581V18.9634C70.378 18.3169 69.7022 17.8393 68.931 17.5982C68.1598 17.3571 67.3324 17.3649 66.5658 17.6203C65.7992 17.8757 65.1325 18.3658 64.66 19.0213C64.1875 19.6767 63.9333 20.4642 63.9333 21.2722C63.9333 22.0802 64.1875 22.8677 64.66 23.5231C65.1325 24.1786 65.7992 24.6687 66.5658 24.9241C67.3324 25.1795 68.1598 25.1873 68.931 24.9462C69.7022 24.7051 70.378 24.2275 70.8626 23.581ZM47.1004 13.1855C48.494 13.1855 49.8636 13.5475 51.0752 14.236V13.5775H56.2023V29.0061H51.0752V28.3475C49.9984 28.9549 48.7967 29.3071 47.5625 29.3772C46.3283 29.4473 45.0944 29.2334 43.9559 28.7518C42.8173 28.2703 41.8043 27.534 40.9949 26.5997C40.1855 25.6653 39.6012 24.5577 39.287 23.3621C38.9727 22.1665 38.9369 20.9147 39.1823 19.7031C39.4277 18.4915 39.9477 17.3523 40.7024 16.3732C41.457 15.3941 42.4263 14.6011 43.5354 14.0553C44.6446 13.5094 45.8642 13.2253 47.1004 13.2247V13.1855ZM51.0752 23.581V18.9634C50.5905 18.3169 49.9148 17.8393 49.1436 17.5982C48.3724 17.3571 47.5449 17.3649 46.7783 17.6203C46.0118 17.8757 45.345 18.3658 44.8726 19.0213C44.4001 19.6767 44.1458 20.4642 44.1458 21.2722C44.1458 22.0802 44.4001 22.8677 44.8726 23.5231C45.345 24.1786 46.0118 24.6687 46.7783 24.9241C47.5449 25.1795 48.3724 25.1873 49.1436 24.9462C49.9148 24.7051 50.5905 24.2275 51.0752 23.581ZM93.9193 5.87891H99.0464V10.9747H93.9193V5.87891ZM78.522 5.87891H83.6571V10.9747H78.522V5.87891ZM93.9193 13.5775H99.0464V29.0061H93.9193V13.5775ZM78.522 13.5775H83.6571V29.0061H78.522V13.5775Z" fill="#8ABA24"/>
<path fill-rule="evenodd" clip-rule="evenodd" d="M116.577 43.7992C116.7 43.8044 116.822 43.7848 116.936 43.7417C117.051 43.6986 117.155 43.6329 117.244 43.5484C117.427 43.3295 117.519 43.0491 117.503 42.7644C117.503 42.4586 117.503 42.2313 117.503 42.098C117.503 41.9647 117.503 41.7531 117.503 41.4473C117.522 41.1622 117.43 40.8806 117.244 40.6633C117.058 40.5012 116.82 40.4119 116.574 40.4119C116.327 40.4119 116.089 40.5012 115.903 40.6633C115.715 40.8794 115.619 41.1611 115.637 41.4473C115.637 41.6041 115.637 41.8158 115.637 42.098C115.637 42.3802 115.637 42.6076 115.637 42.7644C115.623 43.05 115.718 43.3302 115.903 43.5484C115.993 43.6335 116.099 43.6995 116.215 43.7427C116.331 43.7858 116.454 43.805 116.577 43.7992ZM116.577 44.9987C115.933 45.0367 115.296 44.842 114.782 44.4499C114.554 44.2454 114.373 43.9935 114.253 43.7118C114.132 43.4301 114.075 43.1255 114.084 42.8193C114.084 42.6703 114.084 42.443 114.084 42.1294C114.084 41.8158 114.084 41.5884 114.084 41.4316C114.075 41.1254 114.132 40.8208 114.253 40.5391C114.373 40.2574 114.554 40.0055 114.782 39.801C115.288 39.3893 115.926 39.1749 116.577 39.1973C117.22 39.167 117.852 39.3703 118.357 39.7696C118.585 39.9747 118.766 40.2266 118.888 40.508C119.01 40.7894 119.069 41.0937 119.063 41.4003C119.063 41.7139 119.063 41.9491 119.063 42.098C119.063 42.247 119.063 42.49 119.063 42.7879C119.077 43.0979 119.023 43.4072 118.905 43.6943C118.787 43.9813 118.608 44.2392 118.381 44.4499C117.871 44.8427 117.236 45.0376 116.593 44.9987H116.577ZM108.934 44.9987C108.289 45.0374 107.651 44.8426 107.138 44.4499C106.913 44.2453 106.733 43.9945 106.613 43.7145C106.493 43.4345 106.434 43.1318 106.441 42.8271C106.441 42.686 106.441 42.4508 106.441 42.1215C106.441 41.7923 106.441 41.5492 106.441 41.4003C106.439 41.0978 106.5 40.7983 106.622 40.5214C106.743 40.2444 106.922 39.9962 107.146 39.7931C107.66 39.3737 108.311 39.1612 108.973 39.1973C109.41 39.1898 109.845 39.2698 110.251 39.4325C110.609 39.5678 110.921 39.8015 111.152 40.1067C111.366 40.3983 111.484 40.7489 111.489 41.1102H109.922C109.879 40.8928 109.759 40.6981 109.584 40.5614C109.402 40.4472 109.188 40.3925 108.973 40.4046C108.369 40.4046 108.056 40.7417 108.04 41.4081C108.04 41.5571 108.04 41.7766 108.04 42.0745C108.04 42.3724 108.04 42.5998 108.04 42.7566C108.04 43.4308 108.369 43.7679 108.973 43.7679C109.188 43.7753 109.4 43.7208 109.584 43.6111C109.758 43.474 109.878 43.2794 109.922 43.0623H111.489C111.484 43.4236 111.366 43.7742 111.152 44.0658C110.919 44.3686 110.607 44.6018 110.251 44.74C109.844 44.9 109.41 44.9773 108.973 44.9674L108.934 44.9987ZM80.1463 44.9203V40.5144H78.5234V39.3071H83.2978V40.5144H81.675V44.9203H80.1463ZM87.3666 43.7208H90.1576V44.9203H85.9006V39.3071H90.0949V40.5144H87.351V41.5492H89.9224V42.6938H87.351V43.7365L87.3666 43.7208ZM101.008 43.7208H103.814V44.9203H99.5652V39.3071H103.76V40.5144H101.016V41.5492H103.579V42.6938H101.016V43.7365L101.008 43.7208ZM92.7996 44.9203V39.3071H94.3205V43.7208H96.9311V44.9203H92.7996ZM125.969 39.3071H127.271V44.9203H125.844V41.7844L124.888 43.5562H124.104L123.139 41.7844V44.9203H121.712V39.3071H123.022L124.503 41.9412L125.969 39.3071Z" fill="#00869D"/>
</g>
<defs>
<linearGradient id="paint0_linear_34562_12458" x1="0.3685" y1="28.8647" x2="23.6054" y2="9.68877" gradientUnits="userSpaceOnUse">
<stop stop-color="#00869D"/>
<stop offset="0.13" stop-color="#098995"/>
<stop offset="0.35" stop-color="#219380"/>
<stop offset="0.63" stop-color="#49A15D"/>
<stop offset="0.94" stop-color="#7FB62D"/>
<stop offset="1" stop-color="#8ABA24"/>
</linearGradient>
<clipPath id="clip0_34562_12458">
<rect width="131.119" height="45" fill="white"/>
</clipPath>
</defs>
</svg>
